<svg width="37" height="65" viewBox="0 0 37 65" fill="none" xmlns="http://www.w3.org/2000/svg">
<path d="M0 44.237V38.7831H5.5371V44.237H0ZM0.0323808 25.4514V19.9975H5.56948V25.4514H0.0323808Z" fill="#398166"/>
<path d="M33.5029 65C30.9556 62.1295 28.7645 58.9189 26.9296 55.368C25.1163 51.8384 23.7131 48.1281 22.7201 44.237C21.7487 40.3459 21.2738 36.4336 21.2954 32.5C21.2738 28.5664 21.7487 24.6541 22.7201 20.763C23.7131 16.8507 25.1163 13.1297 26.9296 9.6001C28.7645 6.0705 30.9556 2.87046 33.5029 0L37 2.6791C34.4959 5.63461 32.4019 8.73896 30.7181 11.9922C29.0343 15.2241 27.7715 18.5623 26.9296 22.0069C26.1093 25.4514 25.6883 28.9491 25.6668 32.5C25.6883 36.0083 26.1201 39.5061 26.962 42.9931C27.8255 46.4589 29.0883 49.8291 30.7505 53.1035C32.4343 56.3567 34.5175 59.4079 37 62.2571L33.5029 65Z" fill="#398166"/>
</svg>
