<svg width="120" height="36" viewBox="0 0 120 36" fill="none" xmlns="http://www.w3.org/2000/svg">
<g clip-path="url(#clip0_901_34622)">
<path fill-rule="evenodd" clip-rule="evenodd" d="M0 16.833L6.20391 10.6056V6.72749H10.0673L16.2712 0.5L22.4751 6.72749H26.3385V10.6056L32.5424 16.833L26.3385 23.0605V26.9386H22.4751L16.2712 33.1661L10.0673 26.9386H6.20391V23.0605L0 16.833ZM6.20391 21.0184C8.60615 18.1113 12.2292 16.2557 16.2712 16.2555C19.3913 16.2555 21.9356 13.7014 21.9356 10.5696C21.9356 9.09069 21.3683 7.74057 20.4408 6.72749H20.4412L16.2712 2.54159L2.03386 16.833L6.20391 21.0189V21.0184ZM26.3385 12.6471V12.6476C23.9363 15.5547 20.3132 17.4103 16.2712 17.4105C13.1512 17.4106 10.6069 19.9646 10.6069 23.0965C10.6069 24.5754 11.1742 25.9254 12.1016 26.9386H12.1011L16.2712 31.1244L30.5085 16.833L26.3385 12.6471Z" fill="#398166"/>
<path fill-rule="evenodd" clip-rule="evenodd" d="M5.00892 7.21714C5.00892 6.31511 5.7374 5.58387 6.63604 5.58387H9.932C10.3662 5.58387 10.7825 5.40963 11.088 5.09991L15.1146 1.0191C15.7512 0.373851 16.79 0.373841 17.4267 1.01908L21.4534 5.09994C21.7589 5.40963 22.1752 5.58387 22.6094 5.58387H25.9054C26.8041 5.58387 27.5325 6.31511 27.5325 7.21714V10.5888C27.5325 11.0192 27.7018 11.4323 28.0036 11.7381L32.0587 15.8477C32.6866 16.4842 32.6866 17.5099 32.0587 18.1464L28.0036 22.256C27.7018 22.5618 27.5325 22.9749 27.5325 23.4054V26.7772C27.5325 27.6792 26.8041 28.4105 25.9054 28.4105H22.6094C22.1751 28.4105 21.7589 28.5847 21.4534 28.8944L17.4267 32.9752C16.79 33.6204 15.7512 33.6204 15.1146 32.9752L11.088 28.8944C10.7825 28.5847 10.3662 28.4105 9.932 28.4105H6.63604C5.7374 28.4105 5.00892 27.6792 5.00892 26.7772V23.4054C5.00892 22.9749 4.83961 22.5618 4.53784 22.256L0.4828 18.1464C-0.14531 17.5099 -0.145308 16.4842 0.482805 15.8476L4.53784 11.7381C4.83961 11.4323 5.00892 11.0192 5.00892 10.5888V7.21714ZM1.47819 15.8477C0.850072 16.4842 0.850063 17.5099 1.47817 18.1464L6.41658 23.1513L8.22812 25.0444L10.1983 26.9838L15.1146 31.9664C15.7512 32.6118 16.79 32.6118 17.4267 31.9664L22.3431 26.9838L24.3726 25.0444L26.1249 23.1513L31.0632 18.1464C31.6914 17.5099 31.6914 16.4842 31.0632 15.8477L26.1249 10.8429L24.2112 8.78628L22.3431 7.01038L17.4267 2.02781C16.79 1.38258 15.7512 1.38259 15.1146 2.02783L1.47819 15.8477Z" fill="#398166"/>
<path d="M41.7319 28.4991V18.3071H52.6336V28.4991H56.6688V5.73047H52.6336V14.6158H41.7319V5.73047H37.6641V28.4991H41.7319Z" fill="#398166"/>
<path d="M67.4487 11.6758C65.1382 11.6758 63.1857 12.4924 61.5911 14.1584C60.0291 15.7918 59.248 17.8171 59.248 20.2671C59.248 22.7171 60.0291 24.7424 61.5911 26.4084C63.1857 28.0744 65.1382 28.8911 67.4487 28.8911C70.0521 28.8911 71.9396 28.0418 73.0786 26.3104C73.2413 27.1598 73.6969 27.8131 74.4128 28.3031C74.9986 28.6624 75.747 28.8258 76.6908 28.8258C77.5369 28.8258 78.1877 28.7278 78.6108 28.5644V25.3958C78.3179 25.4284 78.025 25.4611 77.7972 25.4611C76.9186 25.4611 76.5931 24.9384 76.5931 23.5338V12.0351H72.688V14.4198C72.0697 12.8518 70.0847 11.6758 67.4487 11.6758ZM67.9694 25.2978C66.5701 25.2978 65.4311 24.8078 64.4874 23.8604C63.5762 22.9131 63.1206 21.7044 63.1206 20.2671C63.1206 18.8298 63.5762 17.6211 64.4874 16.6738C65.4311 15.7264 66.5701 15.2364 67.9694 15.2364C69.3687 15.2364 70.5728 15.7264 71.5165 16.6738C72.4928 17.6211 72.9809 18.8298 72.9809 20.2671C72.9809 21.7044 72.4928 22.9131 71.5165 23.8604C70.5728 24.8078 69.3687 25.2978 67.9694 25.2978Z" fill="#398166"/>
<path d="M79.7695 23.6318C79.7695 27.1925 81.4943 28.9565 84.9438 28.9565C85.7248 28.9565 86.3431 28.8911 86.7987 28.7605V25.2651C86.4733 25.3631 86.0828 25.3958 85.6272 25.3958C84.1953 25.3958 83.6746 24.7098 83.6746 23.1091V5.73047H79.7695V23.6318Z" fill="#398166"/>
<path d="M88.7943 35.2285C89.3475 35.3918 89.9983 35.4898 90.7143 35.4898C92.3739 35.4898 93.6756 35.0325 94.6519 34.1178C95.3353 33.4318 95.921 32.4518 96.4092 31.1778L103.764 12.0352H99.8261L95.3027 24.4485L90.4865 12.0352H86.5488L93.4153 29.1198L92.9922 30.2958C92.7319 30.9818 92.4065 31.4718 92.0485 31.7005C91.6905 31.9292 91.2349 32.0598 90.6166 32.0598C89.9007 32.0598 89.2824 31.9618 88.7943 31.7985V35.2285Z" fill="#398166"/>
<path d="M108.736 28.4991V23.6971L110.363 21.8678L115.537 28.4991H119.963L112.869 19.3851L119.28 12.0351H114.789L108.736 19.0258V5.73047H104.863V28.4991H108.736Z" fill="#398166"/>
</g>
<defs>
<clipPath id="clip0_901_34622">
</clipPath>
</defs>
</svg>
