<svg width="121" height="31" viewBox="0 0 121 31" fill="none" xmlns="http://www.w3.org/2000/svg">
<g clip-path="url(#clip0_1128_14021)">
<path d="M36.0089 21.6987C33.5095 21.6987 31.487 19.7311 31.487 16.8641C31.487 13.8706 33.2206 11.7344 36.2256 11.7344C38.6238 11.7344 40.7474 13.5192 40.7474 16.569C40.7474 19.4922 39.0283 21.6987 36.0089 21.6987ZM36.0378 13.4349C34.5786 13.4349 33.524 14.6014 33.524 16.569C33.524 18.8879 34.3908 20.0262 36.1967 20.0262C37.728 20.0262 38.7104 18.9581 38.7104 16.836C38.7104 14.5733 37.7136 13.4237 36.0378 13.4237V13.4349Z" fill="#8A8A8A"/>
<path d="M48.1876 16.3862C47.9275 15.9506 47.1907 15.5992 46.0783 15.5992C45.5243 15.5969 44.9914 15.8061 44.5943 16.1819C44.1972 16.5577 43.9675 17.0701 43.9546 17.6089C43.9546 18.9862 44.7926 19.9278 46.1072 19.9278C47.2196 19.9278 47.8842 19.5765 48.1587 19.2251H48.2309V20.0965C48.2309 21.01 47.3208 21.6705 45.9194 21.6705C45.4021 21.6783 44.8882 21.5866 44.4074 21.4006C43.9266 21.2146 43.4884 20.938 43.1178 20.5867C42.7473 20.2353 42.4518 19.8162 42.2483 19.3535C42.0448 18.8907 41.9373 18.3933 41.9321 17.89C41.9321 15.7257 43.4779 13.8706 46.1361 13.8706C47.3785 13.8706 48.2598 14.6014 48.2598 15.5008V16.3862H48.1876Z" fill="#8A8A8A"/>
<path d="M52.9262 21.6846C51.3803 21.6846 49.5889 21.2068 49.5889 19.1268V13.9408H49.9212C51.0481 13.9408 51.5248 14.4046 51.5248 15.29V16.6252C51.9902 16.3724 52.5094 16.2281 53.0417 16.2035C54.9054 16.2035 56.1623 17.3981 56.1623 18.9722C56.1623 20.5462 54.9487 21.6846 52.9262 21.6846ZM52.7384 17.6399C52.31 17.6674 51.8943 17.7925 51.5248 18.0053V19.1717C51.5248 19.9026 52.3049 20.1836 52.9406 20.1836C53.7063 20.1836 54.1975 19.7339 54.1975 18.9188C54.1975 18.1036 53.5589 17.6399 52.7384 17.6399Z" fill="#8A8A8A"/>
<path d="M66.0295 21.53C65.3216 21.53 64.8593 21.1646 64.8593 20.4057C64.8593 19.6468 64.7293 17.5106 64.5993 16.3441C64.4837 16.6252 64.3392 16.9906 64.1803 17.4403C63.9058 18.2554 63.169 20.5041 62.62 21.516H62.2011C61.551 21.516 61.0887 21.0241 60.5397 19.45C60.2941 18.7333 59.8318 17.1452 59.4562 16.316C59.2684 17.89 59.1239 20.1668 59.1239 21.516H58.3871C58.234 21.5206 58.0816 21.4948 57.9392 21.4399C57.7968 21.3851 57.6674 21.3024 57.5592 21.1971C57.4509 21.0917 57.3659 20.9659 57.3095 20.8274C57.2531 20.6888 57.2265 20.5405 57.2313 20.3916C57.297 18.2179 57.5629 16.0543 58.0259 13.9268H58.7338C60.5975 13.9268 61.1609 16.3019 61.6521 17.6933C61.811 18.1289 61.8833 18.5787 62.0711 19.0003C62.4322 17.9603 62.909 16.6252 63.299 15.6695C63.5489 15.0296 63.9161 14.4392 64.3826 13.9268H64.7871C65.8128 13.9268 66.2751 14.5311 66.4051 15.543C66.6074 17.1873 66.853 19.5062 66.8819 21.516L66.0295 21.53Z" fill="#8A8A8A"/>
<path d="M72.2706 21.6284C69.6413 21.6284 68.4422 20.4478 68.4422 18.0868V13.9408H68.7744C69.9013 13.9408 70.3781 14.4046 70.3781 15.29V18.157C70.3781 19.4781 70.9993 20.0262 72.1695 20.0262C72.5687 20.0255 72.9664 19.9784 73.3541 19.8857V13.9408H73.6864C74.8133 13.9408 75.29 14.4046 75.29 15.29V21.1927C74.3094 21.4744 73.293 21.6211 72.2706 21.6284Z" fill="#8A8A8A"/>
<path d="M83.5537 21.53C82.6291 21.53 82.0945 21.0662 82.0945 20.1808V18.3116H79.104V21.53H78.6273C77.7027 21.53 77.1681 21.0662 77.1681 20.1808V13.9408H77.5004C78.6273 13.9408 79.104 14.4046 79.104 15.29V16.85H82.0945V13.9408H82.4268C83.5537 13.9408 84.0304 14.4046 84.0304 15.29V21.53H83.5537Z" fill="#8A8A8A"/>
<path d="M89.2313 21.6987C86.8909 21.6987 85.5473 19.8857 85.5473 17.876C85.5473 15.5992 86.8909 13.7722 89.4046 13.7722C91.745 13.7722 93.0886 15.5992 93.0886 17.6089C93.0886 19.8885 91.745 21.6987 89.2313 21.6987ZM89.2313 15.4587C88.1189 15.4587 87.5554 16.3581 87.5554 17.6089C87.5554 19.1127 88.1189 20.0122 89.4046 20.0122C90.5315 20.0122 91.0805 19.1127 91.0805 17.876C91.0805 16.3581 90.5026 15.4587 89.2313 15.4587Z" fill="#8A8A8A"/>
<path d="M102.465 17.4262C103.003 18.229 103.591 18.9988 104.227 19.7311C104.863 20.4057 105.123 20.5322 105.628 20.6446C105.527 21.2349 105.21 21.5862 104.386 21.5862C104.166 21.5888 103.947 21.5478 103.743 21.4657C103.54 21.3835 103.355 21.262 103.201 21.1084C102.248 20.1105 101.482 18.9581 100.659 17.8619V21.516H100.182C99.2574 21.516 98.7228 21.0522 98.7228 20.1668V17.8479C97.8849 18.9441 97.1337 20.0965 96.1802 21.0943C96.0227 21.2472 95.8357 21.3681 95.6299 21.4501C95.424 21.5321 95.2035 21.5736 94.9811 21.5722C94.1576 21.5722 93.8398 21.2208 93.7387 20.6305C94.2443 20.5181 94.5043 20.3916 95.14 19.717C95.7802 18.9882 96.369 18.2182 96.9025 17.4122C95.9147 16.2162 94.8523 15.0804 93.7213 14.0111V13.9408H95.0793C95.7439 13.9408 96.0617 14.0954 96.2929 14.3344C97.1709 15.2514 97.9865 16.2232 98.7344 17.2435V13.9408H99.0667C100.194 13.9408 100.67 14.4046 100.67 15.29V17.2576C101.414 16.2377 102.224 15.2659 103.097 14.3484C103.343 14.1095 103.661 13.9549 104.311 13.9549H105.683V14.0252C104.542 15.0962 103.468 16.2318 102.465 17.4262Z" fill="#8A8A8A"/>
<path d="M112.592 21.575C112.116 21.5628 111.662 21.3772 111.321 21.055C110.345 20.0356 109.437 18.9558 108.605 17.8226V21.5328H107.983C107.088 21.5328 106.654 21.0831 106.654 20.1977V13.9408H107.275C108.214 13.9408 108.605 14.4608 108.605 15.1917V17.1873C109.324 16.2097 110.121 15.2887 110.988 14.4327C111.451 14.0111 111.913 13.9408 112.534 13.9408H113.658V14.0111C112.531 15.0981 111.47 16.2478 110.48 17.4543C111.101 18.1992 111.708 18.9722 112.401 19.6608C113.095 20.3495 113.427 20.5041 113.904 20.6446C113.704 21.2489 113.386 21.575 112.592 21.575Z" fill="#8A8A8A"/>
<path d="M118.053 21.6565H117.663C115.814 21.6565 114.542 20.6446 114.542 19.2533C114.542 17.9041 115.554 16.8781 118.414 16.8781H119.093V16.7798C119.093 15.7117 118.573 15.3744 117.417 15.3744C116.016 15.3744 115.236 15.8944 114.947 16.2457H114.875V15.6554C114.875 14.8122 115.655 13.8003 117.706 13.8003C119.44 13.8003 121 14.5873 121 17.2014V18.9441C121 20.5462 119.786 21.6565 118.053 21.6565ZM119.107 18.2273H118.414C116.94 18.2273 116.521 18.5646 116.521 19.183C116.521 19.8014 117.013 20.1246 117.865 20.1246C118.717 20.1246 119.107 19.7311 119.107 18.9581V18.2273Z" fill="#8A8A8A"/>
<path d="M31.7119 27.7553V24.1315H32.1082V27.7553H31.7119Z" fill="#8A8A8A"/>
<path d="M34.6828 25.0116C34.9113 25.0116 35.1113 25.0547 35.2826 25.141C35.4576 25.2238 35.5933 25.3515 35.6897 25.5241C35.7896 25.6966 35.8396 25.9141 35.8396 26.1764V27.7553H35.4594V26.2126C35.4594 25.9261 35.3844 25.7104 35.2344 25.5655C35.0881 25.4171 34.881 25.3429 34.6132 25.3429C34.4133 25.3429 34.2383 25.3826 34.0884 25.4619C33.942 25.5379 33.8278 25.65 33.7456 25.7984C33.6671 25.9434 33.6278 26.1194 33.6278 26.3265V27.7553H33.2476V25.0374H33.6118V25.7829L33.5529 25.6431C33.6421 25.4464 33.7849 25.2928 33.9813 25.1824C34.1776 25.0685 34.4115 25.0116 34.6828 25.0116Z" fill="#8A8A8A"/>
<path d="M37.7557 27.7812C37.4915 27.7812 37.288 27.7122 37.1451 27.5741C37.0023 27.4361 36.9309 27.2411 36.9309 26.9891V24.4369H37.3112V26.9684C37.3112 27.1272 37.3522 27.2497 37.4343 27.336C37.52 27.4223 37.6414 27.4654 37.7985 27.4654C37.9663 27.4654 38.1055 27.4188 38.2162 27.3256L38.3501 27.5896C38.2751 27.6552 38.1841 27.7035 38.077 27.7346C37.9734 27.7656 37.8663 27.7812 37.7557 27.7812ZM36.4275 25.3429V25.0374H38.168V25.3429H36.4275Z" fill="#8A8A8A"/>
<path d="M40.1372 27.7812C39.8444 27.7812 39.5874 27.7225 39.366 27.6052C39.1446 27.4844 38.9715 27.3204 38.8465 27.1134C38.7216 26.9028 38.6591 26.663 38.6591 26.3938C38.6591 26.1246 38.718 25.8864 38.8358 25.6794C38.9572 25.4723 39.1214 25.3101 39.3285 25.1927C39.5392 25.072 39.7748 25.0116 40.0354 25.0116C40.2996 25.0116 40.5335 25.0702 40.737 25.1876C40.9441 25.3015 41.1065 25.4637 41.2243 25.6742C41.3421 25.8813 41.401 26.1211 41.401 26.3938C41.401 26.411 41.3993 26.43 41.3957 26.4507C41.3957 26.468 41.3957 26.487 41.3957 26.5077H38.9483V26.2333H41.1922L41.0422 26.342C41.0422 26.1453 40.9976 25.971 40.9083 25.8191C40.8227 25.6638 40.7048 25.543 40.5549 25.4568C40.4049 25.3705 40.2318 25.3273 40.0354 25.3273C39.8426 25.3273 39.6695 25.3705 39.5159 25.4568C39.3624 25.543 39.2428 25.6638 39.1571 25.8191C39.0715 25.9745 39.0286 26.1522 39.0286 26.3524V26.4093C39.0286 26.6164 39.075 26.7993 39.1678 26.9581C39.2642 27.1134 39.3963 27.2359 39.5641 27.3256C39.7355 27.4119 39.9301 27.455 40.1479 27.455C40.3193 27.455 40.4781 27.4257 40.6245 27.367C40.7745 27.3084 40.903 27.2186 41.0101 27.0978L41.2243 27.336C41.0994 27.4809 40.9423 27.5914 40.753 27.6673C40.5674 27.7432 40.3621 27.7812 40.1372 27.7812Z" fill="#8A8A8A"/>
<path d="M43.3746 28.7855C43.1175 28.7855 42.8712 28.7493 42.6355 28.6768C42.3999 28.6043 42.2089 28.5008 42.0625 28.3662L42.2553 28.0866C42.3874 28.2005 42.5499 28.2902 42.7427 28.3558C42.939 28.4248 43.1461 28.4593 43.3639 28.4593C43.7209 28.4593 43.9833 28.3782 44.1511 28.216C44.3189 28.0573 44.4028 27.8088 44.4028 27.4706V26.7924L44.4564 26.3265L44.4189 25.8606V25.0374H44.7831V27.424C44.7831 27.8933 44.6634 28.2367 44.4242 28.4542C44.1886 28.6751 43.8387 28.7855 43.3746 28.7855ZM43.305 27.6518C43.0372 27.6518 42.7962 27.5965 42.582 27.4861C42.3678 27.3722 42.1982 27.2152 42.0732 27.015C41.9518 26.8148 41.8911 26.5853 41.8911 26.3265C41.8911 26.0676 41.9518 25.8399 42.0732 25.6431C42.1982 25.443 42.3678 25.2877 42.582 25.1772C42.7962 25.0668 43.0372 25.0116 43.305 25.0116C43.5549 25.0116 43.7798 25.0616 43.9797 25.1617C44.1797 25.2618 44.3386 25.4102 44.4564 25.6069C44.5742 25.8036 44.6331 26.0435 44.6331 26.3265C44.6331 26.6095 44.5742 26.8493 44.4564 27.0461C44.3386 27.2428 44.1797 27.3929 43.9797 27.4965C43.7798 27.6 43.5549 27.6518 43.305 27.6518ZM43.3425 27.3256C43.5495 27.3256 43.7334 27.2842 43.8941 27.2014C44.0547 27.1151 44.1815 26.9977 44.2743 26.8493C44.3671 26.6975 44.4135 26.5232 44.4135 26.3265C44.4135 26.1298 44.3671 25.9572 44.2743 25.8088C44.1815 25.6604 44.0547 25.5448 43.8941 25.4619C43.7334 25.3757 43.5495 25.3325 43.3425 25.3325C43.1389 25.3325 42.9551 25.3757 42.7908 25.4619C42.6302 25.5448 42.5034 25.6604 42.4106 25.8088C42.3214 25.9572 42.2767 26.1298 42.2767 26.3265C42.2767 26.5232 42.3214 26.6975 42.4106 26.8493C42.5034 26.9977 42.6302 27.1151 42.7908 27.2014C42.9551 27.2842 43.1389 27.3256 43.3425 27.3256Z" fill="#8A8A8A"/>
<path d="M45.8411 27.7553V25.0374H46.2053V25.7777L46.1678 25.6483C46.2463 25.4412 46.3784 25.2842 46.5641 25.1772C46.7497 25.0668 46.98 25.0116 47.2549 25.0116V25.3688C47.2407 25.3688 47.2264 25.3688 47.2121 25.3688C47.1978 25.3653 47.1835 25.3636 47.1693 25.3636C46.8729 25.3636 46.6409 25.4516 46.4731 25.6276C46.3053 25.8002 46.2213 26.0469 46.2213 26.3679V27.7553H45.8411Z" fill="#8A8A8A"/>
<path d="M49.5015 27.7553V27.1548L49.4854 27.0564V26.0521C49.4854 25.8209 49.4176 25.6431 49.2819 25.5189C49.1498 25.3946 48.9517 25.3325 48.6875 25.3325C48.5054 25.3325 48.3322 25.3619 48.168 25.4205C48.0038 25.4792 47.8645 25.5569 47.7503 25.6535L47.5789 25.3791C47.7217 25.2618 47.8931 25.172 48.093 25.1099C48.2929 25.0443 48.5036 25.0116 48.7249 25.0116C49.0891 25.0116 49.3694 25.0996 49.5657 25.2756C49.7657 25.4481 49.8656 25.7122 49.8656 26.0676V27.7553H49.5015ZM48.5322 27.7812C48.3215 27.7812 48.1376 27.7484 47.9806 27.6828C47.827 27.6138 47.7092 27.5206 47.6271 27.4033C47.545 27.2825 47.5039 27.1444 47.5039 26.9891C47.5039 26.8476 47.5378 26.7199 47.6057 26.606C47.6771 26.4887 47.7913 26.3955 47.9484 26.3265C48.1091 26.254 48.3233 26.2178 48.5911 26.2178H49.5604V26.4921H48.6018C48.3304 26.4921 48.1412 26.5387 48.0341 26.6319C47.9306 26.7251 47.8788 26.8407 47.8788 26.9788C47.8788 27.1341 47.9413 27.2583 48.0662 27.3515C48.1912 27.4447 48.3661 27.4913 48.5911 27.4913C48.8053 27.4913 48.9891 27.4447 49.1427 27.3515C49.2998 27.2549 49.414 27.1168 49.4854 26.9374L49.5711 27.191C49.4997 27.3705 49.3747 27.5137 49.1962 27.6207C49.0213 27.7277 48.7999 27.7812 48.5322 27.7812Z" fill="#8A8A8A"/>
<path d="M51.7874 27.7812C51.5232 27.7812 51.3197 27.7122 51.1769 27.5741C51.0341 27.4361 50.9627 27.2411 50.9627 26.9891V24.4369H51.3429V26.9684C51.3429 27.1272 51.384 27.2497 51.4661 27.336C51.5518 27.4223 51.6731 27.4654 51.8302 27.4654C51.998 27.4654 52.1373 27.4188 52.248 27.3256L52.3818 27.5896C52.3069 27.6552 52.2158 27.7035 52.1087 27.7346C52.0052 27.7656 51.8981 27.7812 51.7874 27.7812ZM50.4593 25.3429V25.0374H52.1998V25.3429H50.4593Z" fill="#8A8A8A"/>
<path d="M54.1207 27.7812C53.8494 27.7812 53.6048 27.7225 53.387 27.6052C53.1728 27.4844 53.0032 27.3204 52.8783 27.1134C52.7533 26.9028 52.6908 26.663 52.6908 26.3938C52.6908 26.1211 52.7533 25.8813 52.8783 25.6742C53.0032 25.4671 53.1728 25.3049 53.387 25.1876C53.6012 25.0702 53.8458 25.0116 54.1207 25.0116C54.3992 25.0116 54.6455 25.0702 54.8598 25.1876C55.0775 25.3049 55.2471 25.4671 55.3685 25.6742C55.4935 25.8813 55.556 26.1211 55.556 26.3938C55.556 26.663 55.4935 26.9028 55.3685 27.1134C55.2471 27.3204 55.0775 27.4844 54.8598 27.6052C54.642 27.7225 54.3956 27.7812 54.1207 27.7812ZM54.1207 27.455C54.3242 27.455 54.5045 27.4119 54.6616 27.3256C54.8187 27.2359 54.9419 27.1116 55.0311 26.9529C55.124 26.7907 55.1704 26.6043 55.1704 26.3938C55.1704 26.1798 55.124 25.9934 55.0311 25.8347C54.9419 25.6759 54.8187 25.5534 54.6616 25.4671C54.5045 25.3774 54.326 25.3325 54.1261 25.3325C53.9261 25.3325 53.7476 25.3774 53.5905 25.4671C53.4334 25.5534 53.3085 25.6759 53.2156 25.8347C53.1228 25.9934 53.0764 26.1798 53.0764 26.3938C53.0764 26.6043 53.1228 26.7907 53.2156 26.9529C53.3085 27.1116 53.4334 27.2359 53.5905 27.3256C53.7476 27.4119 53.9243 27.455 54.1207 27.455Z" fill="#8A8A8A"/>
<path d="M56.3322 27.7553V25.0374H56.6964V25.7777L56.6589 25.6483C56.7375 25.4412 56.8696 25.2842 57.0552 25.1772C57.2409 25.0668 57.4711 25.0116 57.7461 25.0116V25.3688C57.7318 25.3688 57.7175 25.3688 57.7032 25.3688C57.6889 25.3653 57.6746 25.3636 57.6604 25.3636C57.364 25.3636 57.132 25.4516 56.9642 25.6276C56.7964 25.8002 56.7125 26.0469 56.7125 26.3679V27.7553H56.3322Z" fill="#8A8A8A"/>
<path d="M60.4563 27.7553L59.396 25.0374H59.7601L60.7241 27.5586H60.5581L61.5488 25.0374H61.8755L62.8556 27.5586H62.6895L63.6696 25.0374H64.0177L62.9519 27.7553H62.5931L61.6506 25.3843H61.7631L60.8151 27.7553H60.4563Z" fill="#8A8A8A"/>
<path d="M65.706 27.7812C65.4132 27.7812 65.1562 27.7225 64.9348 27.6052C64.7135 27.4844 64.5403 27.3204 64.4153 27.1134C64.2904 26.9028 64.2279 26.663 64.2279 26.3938C64.2279 26.1246 64.2868 25.8864 64.4046 25.6794C64.526 25.4723 64.6903 25.3101 64.8973 25.1927C65.108 25.072 65.3436 25.0116 65.6042 25.0116C65.8684 25.0116 66.1023 25.0702 66.3058 25.1876C66.5129 25.3015 66.6753 25.4637 66.7931 25.6742C66.911 25.8813 66.9699 26.1211 66.9699 26.3938C66.9699 26.411 66.9681 26.43 66.9645 26.4507C66.9645 26.468 66.9645 26.487 66.9645 26.5077H64.5171V26.2333H66.761L66.6111 26.342C66.6111 26.1453 66.5664 25.971 66.4772 25.8191C66.3915 25.6638 66.2737 25.543 66.1237 25.4568C65.9738 25.3705 65.8006 25.3273 65.6042 25.3273C65.4114 25.3273 65.2383 25.3705 65.0848 25.4568C64.9313 25.543 64.8116 25.6638 64.726 25.8191C64.6403 25.9745 64.5974 26.1522 64.5974 26.3524V26.4093C64.5974 26.6164 64.6438 26.7993 64.7367 26.9581C64.8331 27.1134 64.9652 27.2359 65.133 27.3256C65.3043 27.4119 65.4989 27.455 65.7167 27.455C65.8881 27.455 66.047 27.4257 66.1933 27.367C66.3433 27.3084 66.4718 27.2186 66.5789 27.0978L66.7931 27.336C66.6682 27.4809 66.5111 27.5914 66.3219 27.6673C66.1362 27.7432 65.9309 27.7812 65.706 27.7812Z" fill="#8A8A8A"/>
<path d="M69.1951 27.7812C68.9488 27.7812 68.7274 27.7277 68.531 27.6207C68.3347 27.5103 68.1794 27.3515 68.0651 27.1444C67.9509 26.9374 67.8937 26.6871 67.8937 26.3938C67.8937 26.097 67.9509 25.8468 68.0651 25.6431C68.1829 25.4361 68.34 25.279 68.5364 25.172C68.7328 25.0651 68.9523 25.0116 69.1951 25.0116C69.4629 25.0116 69.7021 25.0702 69.9127 25.1876C70.1269 25.3015 70.2947 25.4619 70.4161 25.669C70.5375 25.8761 70.5982 26.1177 70.5982 26.3938C70.5982 26.6664 70.5375 26.908 70.4161 27.1185C70.2947 27.3256 70.1269 27.4878 69.9127 27.6052C69.7021 27.7225 69.4629 27.7812 69.1951 27.7812ZM67.7438 27.7553V23.9141H68.124V25.8399L68.0705 26.3886L68.108 26.9374V27.7553H67.7438ZM69.1683 27.455C69.3683 27.455 69.5468 27.4119 69.7039 27.3256C69.861 27.2359 69.9859 27.1116 70.0788 26.9529C70.1716 26.7907 70.218 26.6043 70.218 26.3938C70.218 26.1798 70.1716 25.9934 70.0788 25.8347C69.9859 25.6759 69.861 25.5534 69.7039 25.4671C69.5468 25.3774 69.3683 25.3325 69.1683 25.3325C68.9684 25.3325 68.7881 25.3774 68.6274 25.4671C68.4703 25.5534 68.3454 25.6759 68.2526 25.8347C68.1633 25.9934 68.1187 26.1798 68.1187 26.3938C68.1187 26.6043 68.1633 26.7907 68.2526 26.9529C68.3454 27.1116 68.4703 27.2359 68.6274 27.3256C68.7881 27.4119 68.9684 27.455 69.1683 27.455Z" fill="#8A8A8A"/>
<path d="M73.6425 27.7864C73.3712 27.7864 73.1141 27.7449 72.8713 27.6621C72.6321 27.5758 72.4393 27.4619 72.2929 27.3204L72.4804 27.0254C72.6018 27.1462 72.7642 27.2462 72.9677 27.3256C73.1748 27.405 73.3997 27.4447 73.6425 27.4447C73.9531 27.4447 74.1905 27.3791 74.3548 27.248C74.5226 27.1168 74.6065 26.9408 74.6065 26.7199C74.6065 26.499 74.5244 26.323 74.3601 26.1919C74.1995 26.0607 73.9442 25.9952 73.5943 25.9952H73.3265V25.7208L74.4833 24.3179L74.5369 24.4628H72.4483V24.1315H74.8582V24.3955L73.7014 25.7984L73.514 25.6794H73.6586C74.1084 25.6794 74.444 25.776 74.6654 25.9693C74.8903 26.1625 75.0028 26.411 75.0028 26.7147C75.0028 26.9184 74.9528 27.1013 74.8528 27.2635C74.7529 27.4257 74.6011 27.5534 74.3976 27.6466C74.1977 27.7398 73.946 27.7864 73.6425 27.7864Z" fill="#8A8A8A"/>
<path d="M75.8353 27.7812C75.7567 27.7812 75.6889 27.7536 75.6318 27.6983C75.5782 27.6431 75.5514 27.5758 75.5514 27.4965C75.5514 27.4136 75.5782 27.3463 75.6318 27.2946C75.6889 27.2428 75.7567 27.2169 75.8353 27.2169C75.9138 27.2169 75.9799 27.2428 76.0334 27.2946C76.0906 27.3463 76.1191 27.4136 76.1191 27.4965C76.1191 27.5758 76.0906 27.6431 76.0334 27.6983C75.9799 27.7536 75.9138 27.7812 75.8353 27.7812Z" fill="#8A8A8A"/>
<path d="M78.1176 27.7864C77.8284 27.7864 77.5714 27.7139 77.3464 27.5689C77.1215 27.4205 76.9448 27.21 76.8162 26.9374C76.6877 26.6613 76.6234 26.3299 76.6234 25.9434C76.6234 25.5569 76.6877 25.2273 76.8162 24.9546C76.9448 24.6785 77.1215 24.468 77.3464 24.323C77.5714 24.1746 77.8284 24.1004 78.1176 24.1004C78.4068 24.1004 78.6638 24.1746 78.8888 24.323C79.1137 24.468 79.2904 24.6785 79.419 24.9546C79.5511 25.2273 79.6171 25.5569 79.6171 25.9434C79.6171 26.3299 79.5511 26.6613 79.419 26.9374C79.2904 27.21 79.1137 27.4205 78.8888 27.5689C78.6638 27.7139 78.4068 27.7864 78.1176 27.7864ZM78.1176 27.4447C78.339 27.4447 78.5317 27.3877 78.696 27.2738C78.8602 27.1565 78.9887 26.9874 79.0816 26.7665C79.1744 26.5422 79.2208 26.2678 79.2208 25.9434C79.2208 25.619 79.1744 25.3463 79.0816 25.1254C78.9887 24.9011 78.8602 24.732 78.696 24.6181C78.5317 24.5008 78.339 24.4421 78.1176 24.4421C77.9034 24.4421 77.7124 24.5008 77.5446 24.6181C77.3768 24.732 77.2465 24.9011 77.1536 25.1254C77.0608 25.3463 77.0144 25.619 77.0144 25.9434C77.0144 26.2678 77.0608 26.5422 77.1536 26.7665C77.2465 26.9874 77.3768 27.1565 77.5446 27.2738C77.7124 27.3877 77.9034 27.4447 78.1176 27.4447Z" fill="#8A8A8A"/>
<path d="M36.6297 3.94102V7.97102H36.2145V4.74702L34.6065 7.45863H34.4018L32.7937 4.76429V7.97102H32.3785V3.94102H32.7352L34.5129 6.92898L36.273 3.94102H36.6297Z" fill="#8A8A8A"/>
<path d="M38.9517 4.91973C39.3532 4.91973 39.6612 5.01952 39.8756 5.2191C40.09 5.41485 40.1972 5.70654 40.1972 6.09419V7.97102H39.7996V7.49893C39.706 7.6563 39.5676 7.77911 39.3844 7.86739C39.2051 7.95567 38.9906 7.9998 38.7412 7.9998C38.3981 7.9998 38.1252 7.9192 37.9225 7.758C37.7198 7.5968 37.6184 7.38379 37.6184 7.11896C37.6184 6.86181 37.712 6.65455 37.8991 6.49719C38.0901 6.33983 38.3922 6.26115 38.8055 6.26115H39.782V6.07692C39.782 5.81593 39.708 5.61827 39.5598 5.48393C39.4117 5.34576 39.1953 5.27668 38.9107 5.27668C38.7158 5.27668 38.5287 5.3093 38.3494 5.37455C38.17 5.43596 38.0161 5.52231 37.8874 5.63362L37.7003 5.32849C37.8562 5.198 38.0433 5.0982 38.2617 5.02912C38.48 4.95619 38.71 4.91973 38.9517 4.91973ZM38.8055 7.6774C39.0394 7.6774 39.2401 7.62559 39.4078 7.52196C39.5754 7.4145 39.7002 7.26097 39.782 7.06139V6.56628H38.8172C38.2909 6.56628 38.0277 6.74667 38.0277 7.10745C38.0277 7.284 38.096 7.42409 38.2324 7.52772C38.3689 7.62751 38.5599 7.6774 38.8055 7.6774Z" fill="#8A8A8A"/>
<path d="M44.1431 3.69922V7.97102H43.7455V7.37228C43.6207 7.5757 43.4551 7.73114 43.2485 7.8386C43.0457 7.94607 42.8157 7.9998 42.5584 7.9998C42.27 7.9998 42.0088 7.93456 41.7749 7.80406C41.541 7.67357 41.3577 7.49126 41.2252 7.25713C41.0926 7.02301 41.0264 6.75626 41.0264 6.45689C41.0264 6.15752 41.0926 5.89077 41.2252 5.65665C41.3577 5.42252 41.541 5.24213 41.7749 5.11548C42.0088 4.98498 42.27 4.91973 42.5584 4.91973C42.8079 4.91973 43.0321 4.97155 43.2309 5.07518C43.4336 5.17497 43.5993 5.32273 43.728 5.51848V3.69922H44.1431ZM42.5935 7.6371C42.8079 7.6371 43.0009 7.58913 43.1724 7.49318C43.3479 7.39339 43.4843 7.2533 43.5818 7.0729C43.6831 6.89251 43.7338 6.68718 43.7338 6.45689C43.7338 6.2266 43.6831 6.02127 43.5818 5.84088C43.4843 5.66049 43.3479 5.52231 43.1724 5.42636C43.0009 5.32657 42.8079 5.27668 42.5935 5.27668C42.3752 5.27668 42.1783 5.32657 42.0029 5.42636C41.8314 5.52231 41.6949 5.66049 41.5936 5.84088C41.4961 6.02127 41.4474 6.2266 41.4474 6.45689C41.4474 6.68718 41.4961 6.89251 41.5936 7.0729C41.6949 7.2533 41.8314 7.39339 42.0029 7.49318C42.1783 7.58913 42.3752 7.6371 42.5935 7.6371Z" fill="#8A8A8A"/>
<path d="M47.9776 6.58355H45.4047C45.428 6.89827 45.5508 7.1535 45.7731 7.34925C45.9953 7.54115 46.2759 7.6371 46.6151 7.6371C46.8061 7.6371 46.9816 7.60448 47.1414 7.53923C47.3012 7.47015 47.4396 7.37036 47.5566 7.23986L47.7905 7.50469C47.654 7.66589 47.4825 7.78871 47.2759 7.87315C47.0732 7.95759 46.849 7.9998 46.6034 7.9998C46.2876 7.9998 46.007 7.93456 45.7614 7.80406C45.5197 7.66973 45.3306 7.4855 45.1941 7.25138C45.0577 7.01725 44.9895 6.75242 44.9895 6.45689C44.9895 6.16136 45.0538 5.89653 45.1824 5.6624C45.315 5.42828 45.4943 5.24597 45.7204 5.11548C45.9504 4.98498 46.2077 4.91973 46.4923 4.91973C46.7769 4.91973 47.0322 4.98498 47.2583 5.11548C47.4844 5.24597 47.6618 5.42828 47.7905 5.6624C47.9191 5.89269 47.9834 6.15752 47.9834 6.45689L47.9776 6.58355ZM46.4923 5.27092C46.196 5.27092 45.9465 5.36495 45.7438 5.55302C45.545 5.73725 45.4319 5.97905 45.4047 6.27842H47.5858C47.5585 5.97905 47.4435 5.73725 47.2408 5.55302C47.042 5.36495 46.7925 5.27092 46.4923 5.27092Z" fill="#8A8A8A"/>
<path d="M51.9436 4.91973C52.2321 4.91973 52.4933 4.98498 52.7272 5.11548C52.9611 5.24213 53.1443 5.42252 53.2769 5.65665C53.4094 5.89077 53.4757 6.15752 53.4757 6.45689C53.4757 6.75626 53.4094 7.02301 53.2769 7.25713C53.1443 7.49126 52.9611 7.67357 52.7272 7.80406C52.4933 7.93456 52.2321 7.9998 51.9436 7.9998C51.6863 7.9998 51.4544 7.94607 51.2478 7.8386C51.045 7.73114 50.8813 7.5757 50.7566 7.37228V7.97102H50.3589V3.69922H50.7741V5.51848C50.9028 5.32273 51.0665 5.17497 51.2653 5.07518C51.468 4.97155 51.6941 4.91973 51.9436 4.91973ZM51.9144 7.6371C52.1288 7.6371 52.3237 7.58913 52.4991 7.49318C52.6746 7.39339 52.811 7.2533 52.9085 7.0729C53.0098 6.89251 53.0605 6.68718 53.0605 6.45689C53.0605 6.2266 53.0098 6.02127 52.9085 5.84088C52.811 5.66049 52.6746 5.52231 52.4991 5.42636C52.3237 5.32657 52.1288 5.27668 51.9144 5.27668C51.6961 5.27668 51.4992 5.32657 51.3238 5.42636C51.1523 5.52231 51.0158 5.66049 50.9145 5.84088C50.817 6.02127 50.7683 6.2266 50.7683 6.45689C50.7683 6.68718 50.817 6.89251 50.9145 7.0729C51.0158 7.2533 51.1523 7.39339 51.3238 7.49318C51.4992 7.58913 51.6961 7.6371 51.9144 7.6371Z" fill="#8A8A8A"/>
<path d="M56.821 4.94276L55.2831 8.33372C55.1583 8.61774 55.0141 8.81924 54.8504 8.93822C54.6866 9.0572 54.4898 9.11669 54.2598 9.11669C54.1116 9.11669 53.9732 9.09366 53.8446 9.0476C53.7159 9.00155 53.6048 8.93246 53.5113 8.84035L53.7043 8.53522C53.8602 8.68874 54.0473 8.7655 54.2656 8.7655C54.406 8.7655 54.5249 8.72712 54.6223 8.65036C54.7237 8.5736 54.8172 8.4431 54.903 8.25888L55.0375 7.96526L53.6633 4.94276H54.096L55.2539 7.5162L56.4117 4.94276H56.821Z" fill="#8A8A8A"/>
<path fill-rule="evenodd" clip-rule="evenodd" d="M24.1435 13.2768C24.2048 13.2332 24.2784 13.2096 24.3538 13.2095C24.4293 13.2094 24.5029 13.2326 24.5644 13.276C24.6259 13.3194 24.6721 13.3808 24.6967 13.4516C24.7212 13.5223 24.7229 13.5989 24.7014 13.6707C24.6799 13.7424 24.6363 13.8057 24.5767 13.8517C24.5172 13.8976 24.4446 13.924 24.3692 13.927C24.2938 13.9301 24.2194 13.9097 24.1562 13.8687C24.0931 13.8277 24.0445 13.7681 24.0172 13.6984C23.9797 13.6254 23.9719 13.541 23.9954 13.4625C24.0189 13.3841 24.072 13.3176 24.1435 13.2768ZM23.5318 11.4595C23.5959 11.3417 23.6956 11.2468 23.8168 11.1881C23.9381 11.1294 24.0748 11.1098 24.2079 11.1321C24.3409 11.1543 24.4636 11.2173 24.5587 11.3123C24.6538 11.4072 24.7166 11.5292 24.7382 11.6613C24.7599 11.7934 24.7392 11.9289 24.6793 12.0488C24.6193 12.1687 24.5231 12.267 24.4039 12.3298C24.2848 12.3927 24.1489 12.417 24.0151 12.3994C23.8814 12.3817 23.7565 12.323 23.6581 12.2314C23.5417 12.143 23.4638 12.0138 23.4403 11.8703C23.4168 11.7268 23.4495 11.5798 23.5318 11.4595ZM22.5265 11.6418C22.3025 11.6218 22.1359 11.4652 22.1531 11.2942C22.1757 11.2022 22.2337 11.1226 22.3148 11.0725C22.3959 11.0224 22.4936 11.0059 22.5868 11.0265C22.808 11.0464 22.9774 11.2031 22.9602 11.374C22.937 11.4657 22.8788 11.5448 22.7979 11.5948C22.717 11.6447 22.6197 11.6616 22.5265 11.6418ZM24.9161 14.9602C24.9494 14.9411 24.9874 14.9316 25.0259 14.9327C25.0643 14.9338 25.1017 14.9455 25.1338 14.9666C25.1659 14.9876 25.1915 15.0171 25.2076 15.0517C25.2237 15.0864 25.2298 15.1248 25.2251 15.1627C25.2204 15.2005 25.2051 15.2364 25.181 15.2661C25.157 15.2959 25.125 15.3184 25.0887 15.3311C25.0524 15.3438 25.0133 15.3462 24.9757 15.338C24.9381 15.3299 24.9036 15.3115 24.8759 15.285C24.8391 15.2361 24.8228 15.1751 24.8302 15.1146C24.8377 15.0541 24.8685 14.9988 24.9161 14.9602ZM25.2665 12.8182C25.3416 12.7735 25.4288 12.7532 25.5161 12.7602C25.6034 12.7671 25.6862 12.801 25.7531 12.857C25.82 12.9131 25.8675 12.9885 25.8889 13.0726C25.9104 13.1568 25.9048 13.2455 25.8729 13.3263C25.841 13.4072 25.7844 13.4761 25.711 13.5234C25.6376 13.5707 25.5511 13.594 25.4636 13.5902C25.3762 13.5863 25.2922 13.5553 25.2233 13.5017C25.1545 13.448 25.1043 13.3744 25.0798 13.291C25.0436 13.2035 25.0428 13.1055 25.0776 13.0175C25.1124 12.9294 25.18 12.858 25.2665 12.8182ZM18.1523 4.51772C18.6405 5.08741 18.8617 6.05305 18.494 7.59123C18.4222 7.18105 18.1867 5.8622 17.8966 5.31244L18.1523 4.52342V4.51772ZM16.8828 3.90815C15.6966 2.6833 13.778 1.82306 10.9116 2.66051C10.9116 2.66051 12.7268 1.42427 14.8809 1.80597C15.88 2.00734 16.7763 2.54959 17.4141 3.33845L16.8828 3.90815ZM14.7028 10.3713C15.9493 10.2061 17.575 8.71637 17.575 8.71637C17.5462 11.411 15.2054 11.5449 14.7028 10.3713ZM14.6483 29.9575C14.5899 29.9397 14.5409 29.8998 14.5119 29.8465C14.4829 29.7932 14.4761 29.7308 14.4932 29.6726C14.4908 29.6416 14.4957 29.6105 14.5072 29.5817C14.5188 29.5528 14.5368 29.5269 14.56 29.506C14.5831 29.485 14.6107 29.4696 14.6408 29.4608C14.6708 29.452 14.7025 29.4501 14.7334 29.4552C14.7643 29.4603 14.7936 29.4723 14.8191 29.4903C14.8447 29.5082 14.8658 29.5318 14.8808 29.559C14.8958 29.5863 14.9044 29.6165 14.9059 29.6476C14.9074 29.6786 14.9018 29.7096 14.8895 29.7381C14.8665 29.8805 14.7574 29.9802 14.6483 29.9603V29.9575ZM13.4362 28.0063C13.3864 28.0397 13.3282 28.0586 13.2681 28.0609C13.2081 28.0631 13.1486 28.0487 13.0964 28.0191C13.0441 27.9895 13.0013 27.9461 12.9728 27.8936C12.9442 27.8411 12.9311 27.7818 12.9348 27.7223C12.9385 27.6628 12.959 27.6055 12.9939 27.5569C13.0288 27.5084 13.0767 27.4705 13.1322 27.4476C13.1877 27.4247 13.2485 27.4176 13.3078 27.4272C13.3672 27.4369 13.4226 27.4628 13.4678 27.5021C13.5306 27.5733 13.5625 27.6662 13.5566 27.7606C13.5507 27.855 13.5074 27.9433 13.4362 28.0063ZM13.7981 29.1998C13.7417 29.2004 13.6865 29.1836 13.6403 29.1516C13.5941 29.1196 13.5591 29.074 13.5403 29.0213C13.5215 28.9686 13.5198 28.9114 13.5354 28.8577C13.5511 28.8039 13.5833 28.7564 13.6276 28.7218C13.6719 28.6872 13.7259 28.6672 13.7823 28.6646C13.8386 28.662 13.8943 28.6769 13.9416 28.7073C13.9889 28.7377 14.0255 28.7821 14.0461 28.8341C14.0667 28.8862 14.0704 28.9433 14.0566 28.9975C14.0487 29.058 14.0172 29.1131 13.9689 29.1509C13.9206 29.1887 13.8593 29.2062 13.7981 29.1998ZM12.6694 26.696C12.5347 26.6892 12.4055 26.6408 12.3 26.5575C12.1945 26.4743 12.1178 26.3604 12.0808 26.2319C12.0438 26.1033 12.0482 25.9664 12.0935 25.8405C12.1388 25.7145 12.2227 25.6058 12.3335 25.5295C12.4442 25.4532 12.5762 25.4132 12.7111 25.415C12.8459 25.4169 12.9767 25.4605 13.0853 25.5398C13.1939 25.6191 13.2748 25.73 13.3166 25.8572C13.3584 25.9843 13.359 26.1212 13.3185 26.2487C13.2885 26.3915 13.2045 26.5175 13.0838 26.6007C12.963 26.6839 12.8147 26.718 12.6694 26.696ZM12.6866 24.3146C12.7157 24.2619 12.7591 24.2183 12.812 24.1888C12.8648 24.1593 12.9249 24.1451 12.9854 24.1477C13.046 24.1504 13.1046 24.1698 13.1546 24.2037C13.2046 24.2377 13.244 24.2849 13.2684 24.3399C13.2927 24.3949 13.3011 24.4557 13.2924 24.5152C13.2838 24.5747 13.2585 24.6306 13.2195 24.6766C13.1805 24.7226 13.1292 24.7568 13.0716 24.7754C13.014 24.794 12.9522 24.7962 12.8934 24.7818C12.8051 24.7451 12.7344 24.6761 12.6959 24.5892C12.6574 24.5022 12.6541 24.4039 12.6866 24.3146ZM10.0844 8.59674C10.0844 8.59674 11.6957 10.1919 12.9422 10.3571C12.4396 11.5307 10.2682 11.6275 10.0844 8.59674ZM18.9593 15.7664C19.0374 15.7871 19.1081 15.829 19.1634 15.8874C19.2188 15.9458 19.2565 16.0184 19.2725 16.097C19.2884 16.1756 19.2819 16.257 19.2537 16.3321C19.2254 16.4072 19.1766 16.473 19.1127 16.5221C19.0488 16.5711 18.9723 16.6015 18.8919 16.6097C18.8115 16.618 18.7304 16.6038 18.6577 16.5687C18.585 16.5337 18.5237 16.4792 18.4805 16.4114C18.4374 16.3436 18.4142 16.2652 18.4136 16.1851C18.4322 16.0588 18.4995 15.9446 18.6012 15.8665C18.703 15.7884 18.8314 15.7525 18.9593 15.7664ZM19.6199 17.9141C19.7159 17.9145 19.8094 17.9446 19.8873 18.0004C19.9651 18.0562 20.0234 18.1347 20.0539 18.225C20.0844 18.3153 20.0856 18.4128 20.0574 18.5038C20.0292 18.5948 19.9729 18.6748 19.8965 18.7325C19.8201 18.7902 19.7274 18.8227 19.6315 18.8254C19.5355 18.8282 19.441 18.801 19.3614 18.7478C19.2818 18.6946 19.2209 18.618 19.1875 18.5288C19.154 18.4395 19.1495 18.3421 19.1747 18.2502C19.1904 18.1478 19.2456 18.0555 19.3287 17.9928C19.4118 17.93 19.5162 17.9018 19.6199 17.9141ZM20.0335 16.6408C20.1312 16.6113 20.236 16.6148 20.3314 16.6509C20.4268 16.687 20.5074 16.7535 20.5604 16.8401C20.6134 16.9266 20.6359 17.0282 20.6242 17.1288C20.6125 17.2295 20.5674 17.3233 20.4959 17.3957C20.3983 17.4252 20.2934 17.4217 20.198 17.3856C20.1026 17.3495 20.022 17.283 19.969 17.1964C19.916 17.1099 19.8936 17.0083 19.9052 16.9077C19.9169 16.8071 19.962 16.7132 20.0335 16.6408ZM8.34679 25.9753C8.30646 26.0143 8.25485 26.0397 8.19919 26.0482C8.14353 26.0566 8.0866 26.0476 8.03637 26.0224C7.98614 25.9971 7.94513 25.9569 7.91907 25.9074C7.89301 25.8579 7.8832 25.8016 7.89103 25.7463C7.89885 25.691 7.92392 25.6395 7.96271 25.599C8.00151 25.5585 8.05209 25.5311 8.10738 25.5206C8.16268 25.51 8.21991 25.5169 8.27108 25.5402C8.32225 25.5635 8.36479 25.6021 8.39274 25.6506C8.42891 25.7001 8.44432 25.7616 8.43575 25.8221C8.42718 25.8827 8.3953 25.9376 8.34679 25.9753ZM7.74938 23.2351C7.72468 23.179 7.72285 23.1156 7.74427 23.0583C7.7657 23.0009 7.80871 22.954 7.86427 22.9274C7.886 22.9037 7.91297 22.8853 7.94307 22.8736C7.97318 22.8619 8.0056 22.8573 8.0378 22.8601C8.07 22.8629 8.10112 22.873 8.12871 22.8897C8.15631 22.9064 8.17964 22.9292 8.19687 22.9563C8.21411 22.9835 8.22479 23.0142 8.22808 23.0461C8.23136 23.078 8.22717 23.1102 8.21582 23.1402C8.20447 23.1702 8.18628 23.1972 8.16266 23.2191C8.13905 23.241 8.11065 23.2572 8.07968 23.2664C8.0313 23.3047 7.96978 23.3229 7.90813 23.3171C7.84648 23.3112 7.78955 23.2818 7.74938 23.2351ZM7.60003 24.722C7.5206 24.7979 7.41918 24.8473 7.30999 24.8633C7.20081 24.8792 7.08934 24.8608 6.99123 24.8107C6.89311 24.7606 6.81328 24.6813 6.76292 24.5839C6.71257 24.4865 6.69421 24.3759 6.71044 24.2676C6.72666 24.1594 6.77666 24.0589 6.8534 23.9802C6.93014 23.9016 7.02978 23.8487 7.13835 23.8291C7.24692 23.8095 7.35896 23.824 7.45876 23.8707C7.55855 23.9175 7.6411 23.994 7.69481 24.0896C7.76511 24.1865 7.79454 24.3068 7.77684 24.4249C7.75914 24.5429 7.69571 24.6495 7.60003 24.722ZM6.69244 23.0983C6.60767 23.1236 6.51704 23.1215 6.4335 23.0926C6.34996 23.0636 6.2778 23.0092 6.22735 22.9371C6.17691 22.865 6.15076 22.7789 6.15265 22.6911C6.15454 22.6034 6.18438 22.5185 6.23789 22.4486C6.2914 22.3786 6.36584 22.3273 6.45055 22.3019C6.53526 22.2765 6.62591 22.2784 6.7095 22.3072C6.7931 22.336 6.86536 22.3903 6.91595 22.4623C6.96654 22.5343 6.99286 22.6203 6.99114 22.7081C7.00187 22.8026 6.97524 22.8975 6.91686 22.9729C6.85848 23.0484 6.77289 23.0984 6.67808 23.1126L6.69244 23.0983ZM7.63163 20.9192C7.66491 20.9001 7.70292 20.8906 7.74138 20.8917C7.77984 20.8928 7.81722 20.9045 7.84932 20.9256C7.88142 20.9466 7.90696 20.9761 7.92309 21.0107C7.93921 21.0454 7.94526 21.0838 7.94057 21.1217C7.93588 21.1596 7.92063 21.1954 7.89654 21.2251C7.87244 21.2549 7.84046 21.2774 7.80418 21.2901C7.7679 21.3028 7.72877 21.3052 7.69118 21.297C7.6536 21.2889 7.61905 21.2705 7.59142 21.244C7.55461 21.1951 7.53825 21.1341 7.54574 21.0736C7.55323 21.0131 7.584 20.9578 7.63163 20.9192ZM4.03284 18.4354C4.00608 18.4803 3.96737 18.5171 3.92095 18.5417C3.87453 18.5664 3.82218 18.5778 3.76962 18.575C3.71706 18.5721 3.66631 18.5549 3.62292 18.5254C3.57953 18.4958 3.54516 18.455 3.52357 18.4074C3.50198 18.3598 3.494 18.3072 3.50051 18.2554C3.50701 18.2036 3.52774 18.1545 3.56044 18.1136C3.59314 18.0727 3.63655 18.0415 3.68592 18.0234C3.7353 18.0053 3.78874 18.001 3.84041 18.011C3.92196 18.0428 3.98773 18.105 4.02368 18.1843C4.05963 18.2636 4.06292 18.3537 4.03284 18.4354ZM2.34403 18.7202C2.01373 18.7943 1.66907 18.5094 1.57429 18.0879C1.47951 17.6663 1.6662 17.2618 1.99362 17.1877C2.32105 17.1137 2.66858 17.3985 2.76336 17.8201C2.85814 18.2417 2.67145 18.6462 2.34403 18.7202ZM1.7696 15.8717C1.80786 15.805 1.86425 15.7502 1.93235 15.7137C2.00045 15.6771 2.07753 15.6603 2.15481 15.665C2.23209 15.6698 2.30647 15.696 2.36949 15.7406C2.4325 15.7852 2.48162 15.8465 2.51126 15.9174C2.54089 15.9884 2.54985 16.0662 2.53712 16.1419C2.52438 16.2176 2.49046 16.2883 2.43922 16.3459C2.38797 16.4035 2.32146 16.4456 2.24726 16.4675C2.17305 16.4895 2.09413 16.4903 2.01947 16.4699C1.90797 16.4215 1.81967 16.3322 1.77309 16.2207C1.72651 16.1092 1.72526 15.9842 1.7696 15.8717ZM26.1311 18.2331C26.5159 18.4211 26.2488 20.1672 24.8989 20.0448C23.503 19.9137 24.2038 18.8 25.3613 17.0767C28.199 12.8609 24.379 9.43989 21.2484 10.4653C20.1611 10.8952 19.1645 11.5232 18.3102 12.3168C22.2738 5.92487 19.5338 -0.0170541 13.7694 3.67796e-05H13.6746C12.9594 0.0142792 7.53397 0.507066 7.37888 6.55153C7.31282 8.87874 8.39849 10.3486 9.32331 12.3966C10.4348 14.8691 10.2079 17.5865 6.68382 17.145C7.62014 16.9713 8.22329 16.6237 8.59666 16.1936C8.15436 16.1537 7.66035 15.8575 7.20368 15.2508C6.58043 14.4219 6.51149 14.0886 5.83654 13.7098C3.05057 12.1488 0.195668 14.9061 0.910829 17.917C1.70067 21.2326 4.2023 21.4946 3.29183 23.3291C2.38136 25.1635 -0.611402 23.7991 0.841899 21.3009C-0.39312 22.3207 -0.0599521 24.0098 0.517347 24.8672C1.37899 26.1462 4.18793 26.5023 5.39998 24.7903C4.59003 22.8989 3.7169 19.5947 7.12326 18.8854C11.1758 18.0451 9.9638 18.1989 10.7795 17.4213C10.274 19.5064 7.48802 18.5123 6.33629 19.9422C5.03522 21.5545 5.92271 23.7649 5.96866 23.876C6.41384 24.8644 7.27835 25.9411 8.64836 27.0093C9.06482 27.4907 9.42671 28.0632 9.30895 28.7782C9.13662 29.8264 7.43345 29.8521 7.38462 28.462C7.23527 29.0317 7.30707 30.1027 8.53348 30.3505C9.75988 30.5984 11.5033 28.8466 11.0466 27.0663C10.5899 25.286 10.4004 25.1065 10.4549 24.0554C10.5583 22.0615 12.7526 20.9933 13.4793 20.9648C9.90923 22.9758 11.2046 31 16.7191 31C21.3145 31 21.0273 25.736 18.2959 26.1263C16.5726 26.3684 16.6013 27.5505 16.6013 27.5505C17.0635 27.3946 17.5593 27.3641 18.0374 27.4622C19.0512 27.7698 19.2063 29.1286 18.1092 29.7153C16.7564 30.4389 14.5592 29.1456 16.2509 26.0835C16.4088 25.845 16.6025 25.6318 16.8253 25.4512C16.1877 25.3201 15.2772 24.853 15.0274 23.2835C14.7114 21.2895 15.9436 19.683 15.1624 19.6346C15.7109 18.4439 17.3911 18.1876 16.6616 19.7286C16.4003 20.2755 13.7694 23.5028 17.0982 25.1663C19.7176 25.8813 23.7443 23.0698 23.9741 25.3372C23.7989 26.2858 22.7707 26.6931 22.2709 26.4766C22.5954 26.6418 23.6495 27.0862 24.5313 26.32C26.4211 24.6764 25.2378 21.9048 22.2594 22.3748C18.7066 22.9445 18.3878 21.4462 19.9962 20.0419C21.326 18.8797 21.6821 17.6805 21.4495 16.6722C21.4251 16.6432 21.4057 16.6105 21.392 16.5753C21.0273 15.3077 18.8416 13.1571 15.5558 16.0711C16.0039 15.5641 17.1326 14.4988 18.6635 14.2737C19.6314 14.1342 20.9009 14.3706 21.6103 15.1283C22.1101 14.1997 22.7391 14.5586 22.8769 15.0827C23.0349 15.6866 20.8664 19.0136 22.1646 20.4008C23.4628 21.788 25.8209 21.2952 26.5533 20.3695C27.5154 19.1731 26.6595 18.4354 26.1282 18.236L26.1311 18.2331Z" fill="#8A8A8A"/>
</g>
<defs>
<clipPath id="clip0_1128_14021">
<rect width="121" height="31" fill="white"/>
</clipPath>
</defs>
</svg>
