<svg width="121" height="31" viewBox="0 0 121 31" fill="none" xmlns="http://www.w3.org/2000/svg">
<g clip-path="url(#clip0_1036_5245)">
<path d="M36.0089 16.8276C33.5095 16.8276 31.487 14.86 31.487 11.993C31.487 8.99949 33.2206 6.86328 36.2256 6.86328C38.6238 6.86328 40.7474 8.64814 40.7474 11.6979C40.7474 14.6211 39.0283 16.8276 36.0089 16.8276ZM36.0378 8.56382C34.5786 8.56382 33.524 9.7303 33.524 11.6979C33.524 14.0168 34.3908 15.1551 36.1967 15.1551C37.728 15.1551 38.7104 14.087 38.7104 11.9649C38.7104 9.70219 37.7136 8.55257 36.0378 8.55257V8.56382Z" fill="#D9D9D9"/>
<path d="M48.1876 11.5151C47.9275 11.0795 47.1907 10.7281 46.0783 10.7281C45.5243 10.7258 44.9914 10.935 44.5943 11.3108C44.1972 11.6866 43.9675 12.199 43.9546 12.7378C43.9546 14.1151 44.7926 15.0568 46.1072 15.0568C47.2196 15.0568 47.8842 14.7054 48.1587 14.3541H48.2309V15.2254C48.2309 16.1389 47.3208 16.7995 45.9194 16.7995C45.4021 16.8073 44.8882 16.7155 44.4074 16.5295C43.9266 16.3435 43.4884 16.0669 43.1178 15.7156C42.7473 15.3642 42.4518 14.9451 42.2483 14.4824C42.0448 14.0196 41.9373 13.5222 41.9321 13.0189C41.9321 10.8546 43.4779 8.99948 46.1361 8.99948C47.3785 8.99948 48.2598 9.73029 48.2598 10.6297V11.5151H48.1876Z" fill="#D9D9D9"/>
<path d="M52.9262 16.8135C51.3803 16.8135 49.5889 16.3357 49.5889 14.2557V9.06975H49.9212C51.0481 9.06975 51.5248 9.53353 51.5248 10.4189V11.7541C51.9902 11.5013 52.5094 11.357 53.0417 11.3324C54.9054 11.3324 56.1623 12.527 56.1623 14.1011C56.1623 15.6751 54.9487 16.8135 52.9262 16.8135ZM52.7384 12.7688C52.31 12.7963 51.8943 12.9214 51.5248 13.1342V14.3006C51.5248 15.0315 52.3049 15.3125 52.9406 15.3125C53.7063 15.3125 54.1975 14.8628 54.1975 14.0477C54.1975 13.2325 53.5589 12.7688 52.7384 12.7688Z" fill="#D9D9D9"/>
<path d="M66.0295 16.6589C65.3216 16.6589 64.8593 16.2935 64.8593 15.5346C64.8593 14.7757 64.7293 12.6395 64.5993 11.473C64.4837 11.7541 64.3392 12.1195 64.1803 12.5692C63.9058 13.3843 63.169 15.633 62.62 16.6449H62.2011C61.551 16.6449 61.0887 16.153 60.5397 14.5789C60.2941 13.8622 59.8318 12.2741 59.4562 11.4449C59.2684 13.0189 59.1239 15.2957 59.1239 16.6449H58.3871C58.234 16.6495 58.0816 16.6237 57.9392 16.5688C57.7968 16.514 57.6674 16.4313 57.5592 16.326C57.4509 16.2206 57.3659 16.0948 57.3095 15.9563C57.2531 15.8177 57.2265 15.6695 57.2313 15.5205C57.297 13.3468 57.5629 11.1832 58.0259 9.0557H58.7338C60.5975 9.0557 61.1609 11.4308 61.6521 12.8222C61.811 13.2578 61.8833 13.7076 62.0711 14.1292C62.4322 13.0892 62.909 11.7541 63.299 10.7984C63.5489 10.1586 63.9161 9.5681 64.3826 9.0557H64.7871C65.8128 9.0557 66.2751 9.66002 66.4051 10.6719C66.6074 12.3162 66.853 14.6351 66.8819 16.6449L66.0295 16.6589Z" fill="#D9D9D9"/>
<path d="M72.2706 16.7573C69.6413 16.7573 68.4422 15.5768 68.4422 13.2157V9.06975H68.7744C69.9013 9.06975 70.3781 9.53353 70.3781 10.4189V13.286C70.3781 14.607 70.9993 15.1551 72.1695 15.1551C72.5687 15.1544 72.9664 15.1073 73.3541 15.0146V9.06975H73.6864C74.8133 9.06975 75.29 9.53353 75.29 10.4189V16.3216C74.3094 16.6033 73.293 16.75 72.2706 16.7573Z" fill="#D9D9D9"/>
<path d="M83.5537 16.6589C82.6291 16.6589 82.0945 16.1951 82.0945 15.3097V13.4405H79.104V16.6589H78.6273C77.7027 16.6589 77.1681 16.1951 77.1681 15.3097V9.06975H77.5004C78.6273 9.06975 79.104 9.53353 79.104 10.4189V11.9789H82.0945V9.06975H82.4268C83.5537 9.06975 84.0304 9.53353 84.0304 10.4189V16.6589H83.5537Z" fill="#D9D9D9"/>
<path d="M89.2313 16.8276C86.8909 16.8276 85.5473 15.0146 85.5473 13.0049C85.5473 10.7281 86.8909 8.90111 89.4046 8.90111C91.745 8.90111 93.0886 10.7281 93.0886 12.7379C93.0886 15.0174 91.745 16.8276 89.2313 16.8276ZM89.2313 10.5876C88.1189 10.5876 87.5554 11.487 87.5554 12.7379C87.5554 14.2416 88.1189 15.1411 89.4046 15.1411C90.5315 15.1411 91.0805 14.2416 91.0805 13.0049C91.0805 11.487 90.5026 10.5876 89.2313 10.5876Z" fill="#D9D9D9"/>
<path d="M102.465 12.5551C103.003 13.3579 103.591 14.1277 104.227 14.86C104.863 15.5346 105.123 15.6611 105.628 15.7735C105.527 16.3638 105.21 16.7151 104.386 16.7151C104.166 16.7177 103.947 16.6767 103.743 16.5946C103.54 16.5124 103.355 16.3909 103.201 16.2373C102.248 15.2395 101.482 14.087 100.659 12.9908V16.6449H100.182C99.2574 16.6449 98.7228 16.1811 98.7228 15.2957V12.9768C97.8849 14.073 97.1337 15.2254 96.1802 16.2232C96.0227 16.3761 95.8357 16.497 95.6299 16.579C95.424 16.661 95.2035 16.7025 94.9811 16.7011C94.1576 16.7011 93.8398 16.3497 93.7387 15.7595C94.2443 15.647 94.5043 15.5205 95.14 14.8459C95.7802 14.1171 96.369 13.3471 96.9025 12.5411C95.9147 11.3451 94.8523 10.2093 93.7213 9.14002V9.06975H95.0793C95.7439 9.06975 96.0617 9.22435 96.2929 9.46326C97.1709 10.3803 97.9865 11.3521 98.7344 12.3724V9.06975H99.0667C100.194 9.06975 100.67 9.53353 100.67 10.4189V12.3865C101.414 11.3666 102.224 10.3948 103.097 9.47732C103.343 9.2384 103.661 9.08381 104.311 9.08381H105.683V9.15408C104.542 10.2251 103.468 11.3607 102.465 12.5551Z" fill="#D9D9D9"/>
<path d="M112.592 16.7039C112.116 16.6917 111.662 16.5061 111.321 16.1839C110.345 15.1645 109.437 14.0847 108.605 12.9515V16.6617H107.983C107.088 16.6617 106.654 16.212 106.654 15.3266V9.06975H107.275C108.214 9.06975 108.605 9.58975 108.605 10.3206V12.3162C109.324 11.3386 110.121 10.4176 110.988 9.56164C111.451 9.14002 111.913 9.06975 112.534 9.06975H113.658V9.14002C112.531 10.227 111.47 11.3767 110.48 12.5833C111.101 13.3281 111.708 14.1011 112.401 14.7897C113.095 15.4784 113.427 15.633 113.904 15.7735C113.704 16.3778 113.386 16.7039 112.592 16.7039Z" fill="#D9D9D9"/>
<path d="M118.053 16.7854H117.663C115.814 16.7854 114.542 15.7735 114.542 14.3822C114.542 13.033 115.554 12.007 118.414 12.007H119.093V11.9087C119.093 10.8406 118.573 10.5033 117.417 10.5033C116.016 10.5033 115.236 11.0233 114.947 11.3746H114.875V10.7843C114.875 9.9411 115.655 8.92921 117.706 8.92921C119.44 8.92921 121 9.71624 121 12.3303V14.073C121 15.6751 119.786 16.7854 118.053 16.7854ZM119.107 13.3562H118.414C116.94 13.3562 116.521 13.6935 116.521 14.3119C116.521 14.9303 117.013 15.2535 117.865 15.2535C118.717 15.2535 119.107 14.86 119.107 14.087V13.3562Z" fill="#D9D9D9"/>
<path d="M31.7119 23.9897V20.3659H32.1082V23.9897H31.7119Z" fill="#D9D9D9"/>
<path d="M34.6828 21.2459C34.9113 21.2459 35.1113 21.2891 35.2826 21.3754C35.4576 21.4582 35.5933 21.5859 35.6897 21.7584C35.7896 21.931 35.8396 22.1484 35.8396 22.4107V23.9897H35.4594V22.447C35.4594 22.1605 35.3844 21.9448 35.2344 21.7999C35.0881 21.6515 34.881 21.5773 34.6132 21.5773C34.4133 21.5773 34.2383 21.6169 34.0884 21.6963C33.942 21.7722 33.8278 21.8844 33.7456 22.0328C33.6671 22.1778 33.6278 22.3538 33.6278 22.5609V23.9897H33.2476V21.2718H33.6118V22.0173L33.5529 21.8775C33.6421 21.6808 33.7849 21.5272 33.9813 21.4168C34.1776 21.3029 34.4115 21.2459 34.6828 21.2459Z" fill="#D9D9D9"/>
<path d="M37.7557 24.0156C37.4915 24.0156 37.288 23.9465 37.1451 23.8085C37.0023 23.6704 36.9309 23.4754 36.9309 23.2235V20.6713H37.3112V23.2028C37.3112 23.3615 37.3522 23.4841 37.4343 23.5703C37.52 23.6566 37.6414 23.6998 37.7985 23.6998C37.9663 23.6998 38.1055 23.6532 38.2162 23.56L38.3501 23.824C38.2751 23.8896 38.1841 23.9379 38.077 23.969C37.9734 24 37.8663 24.0156 37.7557 24.0156ZM36.4275 21.5773V21.2718H38.168V21.5773H36.4275Z" fill="#D9D9D9"/>
<path d="M40.1372 24.0156C39.8444 24.0156 39.5874 23.9569 39.366 23.8395C39.1446 23.7187 38.9715 23.5548 38.8465 23.3477C38.7216 23.1372 38.6591 22.8974 38.6591 22.6282C38.6591 22.359 38.718 22.1208 38.8358 21.9137C38.9572 21.7067 39.1214 21.5445 39.3285 21.4271C39.5392 21.3063 39.7748 21.2459 40.0354 21.2459C40.2996 21.2459 40.5335 21.3046 40.737 21.4219C40.9441 21.5358 41.1065 21.698 41.2243 21.9086C41.3421 22.1156 41.401 22.3555 41.401 22.6282C41.401 22.6454 41.3993 22.6644 41.3957 22.6851C41.3957 22.7024 41.3957 22.7213 41.3957 22.742H38.9483V22.4677H41.1922L41.0422 22.5764C41.0422 22.3797 40.9976 22.2054 40.9083 22.0535C40.8227 21.8982 40.7048 21.7774 40.5549 21.6911C40.4049 21.6049 40.2318 21.5617 40.0354 21.5617C39.8426 21.5617 39.6695 21.6049 39.5159 21.6911C39.3624 21.7774 39.2428 21.8982 39.1571 22.0535C39.0715 22.2088 39.0286 22.3866 39.0286 22.5867V22.6437C39.0286 22.8508 39.075 23.0337 39.1678 23.1924C39.2642 23.3477 39.3963 23.4703 39.5641 23.56C39.7355 23.6463 39.9301 23.6894 40.1479 23.6894C40.3193 23.6894 40.4781 23.6601 40.6245 23.6014C40.7745 23.5427 40.903 23.453 41.0101 23.3322L41.2243 23.5703C41.0994 23.7153 40.9423 23.8257 40.753 23.9017C40.5674 23.9776 40.3621 24.0156 40.1372 24.0156Z" fill="#D9D9D9"/>
<path d="M43.3746 25.0199C43.1175 25.0199 42.8712 24.9836 42.6355 24.9112C42.3999 24.8387 42.2089 24.7351 42.0625 24.6005L42.2553 24.321C42.3874 24.4349 42.5499 24.5246 42.7427 24.5902C42.939 24.6592 43.1461 24.6937 43.3639 24.6937C43.7209 24.6937 43.9833 24.6126 44.1511 24.4504C44.3189 24.2917 44.4028 24.0432 44.4028 23.7049V23.0268L44.4564 22.5609L44.4189 22.0949V21.2718H44.7831V23.6584C44.7831 24.1277 44.6634 24.4711 44.4242 24.6885C44.1886 24.9094 43.8387 25.0199 43.3746 25.0199ZM43.305 23.8861C43.0372 23.8861 42.7962 23.8309 42.582 23.7205C42.3678 23.6066 42.1982 23.4496 42.0732 23.2494C41.9518 23.0492 41.8911 22.8197 41.8911 22.5609C41.8911 22.302 41.9518 22.0742 42.0732 21.8775C42.1982 21.6773 42.3678 21.522 42.582 21.4116C42.7962 21.3012 43.0372 21.2459 43.305 21.2459C43.5549 21.2459 43.7798 21.296 43.9797 21.3961C44.1797 21.4961 44.3386 21.6446 44.4564 21.8413C44.5742 22.038 44.6331 22.2779 44.6331 22.5609C44.6331 22.8439 44.5742 23.0837 44.4564 23.2804C44.3386 23.4772 44.1797 23.6273 43.9797 23.7308C43.7798 23.8344 43.5549 23.8861 43.305 23.8861ZM43.3425 23.56C43.5495 23.56 43.7334 23.5186 43.8941 23.4357C44.0547 23.3495 44.1815 23.2321 44.2743 23.0837C44.3671 22.9319 44.4135 22.7576 44.4135 22.5609C44.4135 22.3641 44.3671 22.1916 44.2743 22.0432C44.1815 21.8948 44.0547 21.7791 43.8941 21.6963C43.7334 21.61 43.5495 21.5669 43.3425 21.5669C43.139 21.5669 42.9551 21.61 42.7909 21.6963C42.6302 21.7791 42.5034 21.8948 42.4106 22.0432C42.3214 22.1916 42.2767 22.3641 42.2767 22.5609C42.2767 22.7576 42.3214 22.9319 42.4106 23.0837C42.5034 23.2321 42.6302 23.3495 42.7909 23.4357C42.9551 23.5186 43.139 23.56 43.3425 23.56Z" fill="#D9D9D9"/>
<path d="M45.8411 23.9897V21.2718H46.2053V22.0121L46.1678 21.8827C46.2463 21.6756 46.3784 21.5186 46.5641 21.4116C46.7497 21.3012 46.98 21.2459 47.2549 21.2459V21.6031C47.2407 21.6031 47.2264 21.6031 47.2121 21.6031C47.1978 21.5997 47.1835 21.598 47.1693 21.598C46.8729 21.598 46.6409 21.686 46.4731 21.862C46.3053 22.0345 46.2214 22.2813 46.2214 22.6023V23.9897H45.8411Z" fill="#D9D9D9"/>
<path d="M49.5015 23.9897V23.3892L49.4854 23.2908V22.2865C49.4854 22.0552 49.4176 21.8775 49.2819 21.7533C49.1498 21.629 48.9517 21.5669 48.6875 21.5669C48.5054 21.5669 48.3322 21.5962 48.168 21.6549C48.0038 21.7136 47.8645 21.7912 47.7503 21.8879L47.5789 21.6135C47.7217 21.4961 47.8931 21.4064 48.093 21.3443C48.2929 21.2787 48.5036 21.2459 48.725 21.2459C49.0891 21.2459 49.3694 21.3339 49.5657 21.51C49.7657 21.6825 49.8656 21.9465 49.8656 22.302V23.9897H49.5015ZM48.5322 24.0156C48.3215 24.0156 48.1376 23.9828 47.9806 23.9172C47.827 23.8482 47.7092 23.755 47.6271 23.6376C47.545 23.5169 47.5039 23.3788 47.5039 23.2235C47.5039 23.082 47.5378 22.9543 47.6057 22.8404C47.6771 22.7231 47.7913 22.6299 47.9484 22.5609C48.1091 22.4884 48.3233 22.4521 48.5911 22.4521H49.5604V22.7265H48.6018C48.3304 22.7265 48.1412 22.7731 48.0341 22.8663C47.9306 22.9595 47.8788 23.0751 47.8788 23.2131C47.8788 23.3684 47.9413 23.4927 48.0662 23.5859C48.1912 23.6791 48.3661 23.7257 48.5911 23.7257C48.8053 23.7257 48.9891 23.6791 49.1427 23.5859C49.2998 23.4892 49.414 23.3512 49.4854 23.1717L49.5711 23.4254C49.4997 23.6049 49.3747 23.7481 49.1962 23.8551C49.0213 23.9621 48.7999 24.0156 48.5322 24.0156Z" fill="#D9D9D9"/>
<path d="M51.7874 24.0156C51.5232 24.0156 51.3197 23.9465 51.1769 23.8085C51.0341 23.6704 50.9627 23.4754 50.9627 23.2235V20.6713H51.3429V23.2028C51.3429 23.3615 51.384 23.4841 51.4661 23.5703C51.5518 23.6566 51.6731 23.6998 51.8302 23.6998C51.998 23.6998 52.1373 23.6532 52.248 23.56L52.3818 23.824C52.3069 23.8896 52.2158 23.9379 52.1087 23.969C52.0052 24 51.8981 24.0156 51.7874 24.0156ZM50.4593 21.5773V21.2718H52.1998V21.5773H50.4593Z" fill="#D9D9D9"/>
<path d="M54.1207 24.0156C53.8494 24.0156 53.6048 23.9569 53.387 23.8395C53.1728 23.7187 53.0032 23.5548 52.8783 23.3477C52.7533 23.1372 52.6908 22.8974 52.6908 22.6282C52.6908 22.3555 52.7533 22.1156 52.8783 21.9086C53.0032 21.7015 53.1728 21.5393 53.387 21.4219C53.6012 21.3046 53.8458 21.2459 54.1207 21.2459C54.3992 21.2459 54.6455 21.3046 54.8598 21.4219C55.0775 21.5393 55.2471 21.7015 55.3685 21.9086C55.4935 22.1156 55.556 22.3555 55.556 22.6282C55.556 22.8974 55.4935 23.1372 55.3685 23.3477C55.2471 23.5548 55.0775 23.7187 54.8598 23.8395C54.642 23.9569 54.3956 24.0156 54.1207 24.0156ZM54.1207 23.6894C54.3242 23.6894 54.5045 23.6463 54.6616 23.56C54.8187 23.4703 54.9419 23.346 55.0311 23.1873C55.124 23.025 55.1704 22.8387 55.1704 22.6282C55.1704 22.4142 55.124 22.2278 55.0311 22.0691C54.9419 21.9103 54.8187 21.7878 54.6616 21.7015C54.5045 21.6118 54.326 21.5669 54.1261 21.5669C53.9261 21.5669 53.7476 21.6118 53.5905 21.7015C53.4334 21.7878 53.3085 21.9103 53.2157 22.0691C53.1228 22.2278 53.0764 22.4142 53.0764 22.6282C53.0764 22.8387 53.1228 23.025 53.2157 23.1873C53.3085 23.346 53.4334 23.4703 53.5905 23.56C53.7476 23.6463 53.9243 23.6894 54.1207 23.6894Z" fill="#D9D9D9"/>
<path d="M56.3322 23.9897V21.2718H56.6964V22.0121L56.6589 21.8827C56.7375 21.6756 56.8696 21.5186 57.0552 21.4116C57.2409 21.3012 57.4711 21.2459 57.7461 21.2459V21.6031C57.7318 21.6031 57.7175 21.6031 57.7032 21.6031C57.6889 21.5997 57.6747 21.598 57.6604 21.598C57.364 21.598 57.132 21.686 56.9642 21.862C56.7964 22.0345 56.7125 22.2813 56.7125 22.6023V23.9897H56.3322Z" fill="#D9D9D9"/>
<path d="M60.4563 23.9897L59.396 21.2718H59.7601L60.7241 23.793H60.5581L61.5488 21.2718H61.8755L62.8556 23.793H62.6895L63.6696 21.2718H64.0177L62.9519 23.9897H62.5931L61.6506 21.6187H61.7631L60.8151 23.9897H60.4563Z" fill="#D9D9D9"/>
<path d="M65.706 24.0156C65.4132 24.0156 65.1562 23.9569 64.9348 23.8395C64.7135 23.7187 64.5403 23.5548 64.4153 23.3477C64.2904 23.1372 64.2279 22.8974 64.2279 22.6282C64.2279 22.359 64.2868 22.1208 64.4046 21.9137C64.526 21.7067 64.6903 21.5445 64.8973 21.4271C65.108 21.3063 65.3436 21.2459 65.6042 21.2459C65.8684 21.2459 66.1023 21.3046 66.3058 21.4219C66.5129 21.5358 66.6753 21.698 66.7931 21.9086C66.911 22.1156 66.9699 22.3555 66.9699 22.6282C66.9699 22.6454 66.9681 22.6644 66.9645 22.6851C66.9645 22.7024 66.9645 22.7213 66.9645 22.742H64.5171V22.4677H66.761L66.6111 22.5764C66.6111 22.3797 66.5664 22.2054 66.4772 22.0535C66.3915 21.8982 66.2737 21.7774 66.1237 21.6911C65.9738 21.6049 65.8006 21.5617 65.6042 21.5617C65.4114 21.5617 65.2383 21.6049 65.0848 21.6911C64.9313 21.7774 64.8116 21.8982 64.726 22.0535C64.6403 22.2088 64.5974 22.3866 64.5974 22.5867V22.6437C64.5974 22.8508 64.6438 23.0337 64.7367 23.1924C64.8331 23.3477 64.9652 23.4703 65.133 23.56C65.3043 23.6463 65.4989 23.6894 65.7167 23.6894C65.8881 23.6894 66.047 23.6601 66.1933 23.6014C66.3433 23.5427 66.4718 23.453 66.5789 23.3322L66.7931 23.5703C66.6682 23.7153 66.5111 23.8257 66.3219 23.9017C66.1362 23.9776 65.9309 24.0156 65.706 24.0156Z" fill="#D9D9D9"/>
<path d="M69.1951 24.0156C68.9488 24.0156 68.7274 23.9621 68.531 23.8551C68.3347 23.7446 68.1794 23.5859 68.0651 23.3788C67.9509 23.1717 67.8938 22.9215 67.8938 22.6282C67.8938 22.3313 67.9509 22.0811 68.0651 21.8775C68.1829 21.6704 68.34 21.5134 68.5364 21.4064C68.7328 21.2994 68.9523 21.2459 69.1951 21.2459C69.4629 21.2459 69.7021 21.3046 69.9127 21.4219C70.1269 21.5358 70.2948 21.6963 70.4161 21.9034C70.5375 22.1105 70.5982 22.3521 70.5982 22.6282C70.5982 22.9008 70.5375 23.1424 70.4161 23.3529C70.2948 23.56 70.1269 23.7222 69.9127 23.8395C69.7021 23.9569 69.4629 24.0156 69.1951 24.0156ZM67.7438 23.9897V20.1484H68.124V22.0742L68.0705 22.623L68.108 23.1717V23.9897H67.7438ZM69.1683 23.6894C69.3683 23.6894 69.5468 23.6463 69.7039 23.56C69.861 23.4703 69.9859 23.346 70.0788 23.1873C70.1716 23.025 70.218 22.8387 70.218 22.6282C70.218 22.4142 70.1716 22.2278 70.0788 22.0691C69.9859 21.9103 69.861 21.7878 69.7039 21.7015C69.5468 21.6118 69.3683 21.5669 69.1683 21.5669C68.9684 21.5669 68.7881 21.6118 68.6274 21.7015C68.4704 21.7878 68.3454 21.9103 68.2526 22.0691C68.1633 22.2278 68.1187 22.4142 68.1187 22.6282C68.1187 22.8387 68.1633 23.025 68.2526 23.1873C68.3454 23.346 68.4704 23.4703 68.6274 23.56C68.7881 23.6463 68.9684 23.6894 69.1683 23.6894Z" fill="#D9D9D9"/>
<path d="M73.6425 24.0207C73.3712 24.0207 73.1141 23.9793 72.8713 23.8965C72.6321 23.8102 72.4393 23.6963 72.2929 23.5548L72.4804 23.2597C72.6018 23.3805 72.7642 23.4806 72.9677 23.56C73.1748 23.6394 73.3997 23.6791 73.6425 23.6791C73.9531 23.6791 74.1905 23.6135 74.3548 23.4823C74.5226 23.3512 74.6065 23.1752 74.6065 22.9543C74.6065 22.7334 74.5244 22.5574 74.3601 22.4263C74.1995 22.2951 73.9442 22.2295 73.5943 22.2295H73.3265V21.9552L74.4833 20.5522L74.5369 20.6972H72.4483V20.3659H74.8582V20.6299L73.7014 22.0328L73.514 21.9137H73.6586C74.1084 21.9137 74.444 22.0104 74.6654 22.2037C74.8903 22.3969 75.0028 22.6454 75.0028 22.9491C75.0028 23.1527 74.9528 23.3357 74.8528 23.4979C74.7529 23.6601 74.6011 23.7878 74.3976 23.881C74.1977 23.9741 73.946 24.0207 73.6425 24.0207Z" fill="#D9D9D9"/>
<path d="M75.8353 24.0156C75.7567 24.0156 75.6889 23.9879 75.6318 23.9327C75.5782 23.8775 75.5514 23.8102 75.5514 23.7308C75.5514 23.648 75.5782 23.5807 75.6318 23.5289C75.6889 23.4772 75.7567 23.4513 75.8353 23.4513C75.9138 23.4513 75.9799 23.4772 76.0334 23.5289C76.0906 23.5807 76.1191 23.648 76.1191 23.7308C76.1191 23.8102 76.0906 23.8775 76.0334 23.9327C75.9799 23.9879 75.9138 24.0156 75.8353 24.0156Z" fill="#D9D9D9"/>
<path d="M78.1176 24.0207C77.8284 24.0207 77.5714 23.9483 77.3464 23.8033C77.1215 23.6549 76.9448 23.4444 76.8162 23.1717C76.6877 22.8956 76.6234 22.5643 76.6234 22.1778C76.6234 21.7912 76.6877 21.4616 76.8162 21.189C76.9448 20.9129 77.1215 20.7024 77.3464 20.5574C77.5714 20.409 77.8284 20.3348 78.1176 20.3348C78.4068 20.3348 78.6638 20.409 78.8888 20.5574C79.1137 20.7024 79.2904 20.9129 79.419 21.189C79.5511 21.4616 79.6171 21.7912 79.6171 22.1778C79.6171 22.5643 79.5511 22.8956 79.419 23.1717C79.2904 23.4444 79.1137 23.6549 78.8888 23.8033C78.6638 23.9483 78.4068 24.0207 78.1176 24.0207ZM78.1176 23.6791C78.339 23.6791 78.5317 23.6221 78.696 23.5082C78.8602 23.3909 78.9887 23.2218 79.0816 23.0009C79.1744 22.7766 79.2208 22.5022 79.2208 22.1778C79.2208 21.8534 79.1744 21.5807 79.0816 21.3598C78.9887 21.1355 78.8602 20.9664 78.696 20.8525C78.5317 20.7351 78.339 20.6765 78.1176 20.6765C77.9034 20.6765 77.7124 20.7351 77.5446 20.8525C77.3768 20.9664 77.2465 21.1355 77.1536 21.3598C77.0608 21.5807 77.0144 21.8534 77.0144 22.1778C77.0144 22.5022 77.0608 22.7766 77.1536 23.0009C77.2465 23.2218 77.3768 23.3909 77.5446 23.5082C77.7124 23.6221 77.9034 23.6791 78.1176 23.6791Z" fill="#D9D9D9"/>
<path fill-rule="evenodd" clip-rule="evenodd" d="M24.1435 13.2768C24.2048 13.2332 24.2784 13.2096 24.3538 13.2095C24.4293 13.2094 24.5029 13.2326 24.5644 13.276C24.6259 13.3194 24.6721 13.3808 24.6967 13.4516C24.7212 13.5223 24.7229 13.5989 24.7014 13.6707C24.6799 13.7424 24.6363 13.8057 24.5767 13.8517C24.5172 13.8976 24.4446 13.924 24.3692 13.927C24.2938 13.9301 24.2194 13.9097 24.1562 13.8687C24.0931 13.8277 24.0445 13.7681 24.0172 13.6984C23.9797 13.6254 23.9719 13.541 23.9954 13.4625C24.0189 13.3841 24.072 13.3176 24.1435 13.2768ZM23.5318 11.4595C23.5959 11.3417 23.6956 11.2468 23.8168 11.1881C23.9381 11.1294 24.0748 11.1098 24.2079 11.1321C24.3409 11.1543 24.4636 11.2173 24.5587 11.3123C24.6538 11.4072 24.7166 11.5292 24.7382 11.6613C24.7599 11.7934 24.7392 11.9289 24.6793 12.0488C24.6193 12.1687 24.5231 12.267 24.4039 12.3298C24.2848 12.3927 24.1489 12.417 24.0151 12.3994C23.8814 12.3817 23.7565 12.323 23.6581 12.2314C23.5417 12.143 23.4638 12.0138 23.4403 11.8703C23.4168 11.7268 23.4495 11.5798 23.5318 11.4595ZM22.5265 11.6418C22.3025 11.6218 22.1359 11.4652 22.1531 11.2942C22.1757 11.2022 22.2337 11.1226 22.3148 11.0725C22.3959 11.0224 22.4936 11.0059 22.5868 11.0265C22.808 11.0464 22.9774 11.2031 22.9602 11.374C22.937 11.4657 22.8788 11.5448 22.7979 11.5948C22.717 11.6447 22.6197 11.6616 22.5265 11.6418ZM24.9161 14.9602C24.9494 14.9411 24.9874 14.9316 25.0259 14.9327C25.0643 14.9338 25.1017 14.9455 25.1338 14.9666C25.1659 14.9876 25.1915 15.0171 25.2076 15.0517C25.2237 15.0864 25.2298 15.1248 25.2251 15.1627C25.2204 15.2005 25.2051 15.2364 25.181 15.2661C25.157 15.2959 25.125 15.3184 25.0887 15.3311C25.0524 15.3438 25.0133 15.3462 24.9757 15.338C24.9381 15.3299 24.9036 15.3115 24.8759 15.285C24.8391 15.2361 24.8228 15.1751 24.8302 15.1146C24.8377 15.0541 24.8685 14.9988 24.9161 14.9602ZM25.2665 12.8182C25.3416 12.7735 25.4288 12.7532 25.5161 12.7602C25.6034 12.7671 25.6862 12.801 25.7531 12.857C25.82 12.9131 25.8675 12.9885 25.8889 13.0726C25.9104 13.1568 25.9048 13.2455 25.8729 13.3263C25.841 13.4072 25.7844 13.4761 25.711 13.5234C25.6376 13.5707 25.5511 13.594 25.4636 13.5902C25.3762 13.5863 25.2922 13.5553 25.2233 13.5017C25.1545 13.448 25.1043 13.3744 25.0798 13.291C25.0436 13.2035 25.0428 13.1055 25.0776 13.0175C25.1124 12.9294 25.18 12.858 25.2665 12.8182ZM18.1523 4.51772C18.6405 5.08741 18.8617 6.05305 18.494 7.59123C18.4222 7.18105 18.1867 5.8622 17.8966 5.31244L18.1523 4.52342V4.51772ZM16.8828 3.90815C15.6966 2.6833 13.778 1.82306 10.9116 2.66051C10.9116 2.66051 12.7268 1.42427 14.8809 1.80597C15.88 2.00734 16.7763 2.54959 17.4141 3.33845L16.8828 3.90815ZM14.7028 10.3713C15.9493 10.2061 17.575 8.71637 17.575 8.71637C17.5462 11.411 15.2054 11.5449 14.7028 10.3713ZM14.6483 29.9575C14.5899 29.9397 14.5409 29.8998 14.5119 29.8465C14.4829 29.7932 14.4761 29.7308 14.4932 29.6726C14.4908 29.6416 14.4957 29.6105 14.5072 29.5817C14.5188 29.5528 14.5368 29.5269 14.56 29.506C14.5831 29.485 14.6107 29.4696 14.6408 29.4608C14.6708 29.452 14.7025 29.4501 14.7334 29.4552C14.7643 29.4603 14.7936 29.4723 14.8191 29.4903C14.8447 29.5082 14.8658 29.5318 14.8808 29.559C14.8958 29.5863 14.9044 29.6165 14.9059 29.6476C14.9074 29.6786 14.9018 29.7096 14.8895 29.7381C14.8665 29.8805 14.7574 29.9802 14.6483 29.9603V29.9575ZM13.4362 28.0063C13.3864 28.0397 13.3282 28.0586 13.2681 28.0609C13.2081 28.0631 13.1486 28.0487 13.0964 28.0191C13.0441 27.9895 13.0013 27.9461 12.9728 27.8936C12.9442 27.8411 12.9311 27.7818 12.9348 27.7223C12.9385 27.6628 12.959 27.6055 12.9939 27.5569C13.0288 27.5084 13.0767 27.4705 13.1322 27.4476C13.1877 27.4247 13.2485 27.4176 13.3078 27.4272C13.3672 27.4369 13.4226 27.4628 13.4678 27.5021C13.5306 27.5733 13.5625 27.6662 13.5566 27.7606C13.5507 27.855 13.5074 27.9433 13.4362 28.0063ZM13.7981 29.1998C13.7417 29.2004 13.6865 29.1836 13.6403 29.1516C13.5941 29.1196 13.5591 29.074 13.5403 29.0213C13.5215 28.9686 13.5198 28.9114 13.5354 28.8577C13.5511 28.8039 13.5833 28.7564 13.6276 28.7218C13.6719 28.6872 13.7259 28.6672 13.7823 28.6646C13.8386 28.662 13.8943 28.6769 13.9416 28.7073C13.9889 28.7377 14.0255 28.7821 14.0461 28.8341C14.0667 28.8862 14.0704 28.9433 14.0566 28.9975C14.0487 29.058 14.0172 29.1131 13.9689 29.1509C13.9206 29.1887 13.8593 29.2062 13.7981 29.1998ZM12.6694 26.696C12.5347 26.6892 12.4055 26.6408 12.3 26.5575C12.1945 26.4743 12.1178 26.3604 12.0808 26.2319C12.0438 26.1033 12.0482 25.9664 12.0935 25.8405C12.1388 25.7145 12.2227 25.6058 12.3335 25.5295C12.4442 25.4532 12.5762 25.4132 12.7111 25.415C12.8459 25.4169 12.9767 25.4605 13.0853 25.5398C13.1939 25.6191 13.2748 25.73 13.3166 25.8572C13.3584 25.9843 13.359 26.1212 13.3185 26.2487C13.2885 26.3915 13.2045 26.5175 13.0838 26.6007C12.963 26.6839 12.8147 26.718 12.6694 26.696ZM12.6866 24.3146C12.7157 24.2619 12.7591 24.2183 12.812 24.1888C12.8648 24.1593 12.9249 24.1451 12.9854 24.1477C13.046 24.1504 13.1046 24.1698 13.1546 24.2037C13.2046 24.2377 13.244 24.2849 13.2684 24.3399C13.2927 24.3949 13.3011 24.4557 13.2924 24.5152C13.2838 24.5747 13.2585 24.6306 13.2195 24.6766C13.1805 24.7226 13.1292 24.7568 13.0716 24.7754C13.014 24.794 12.9522 24.7962 12.8934 24.7818C12.8051 24.7451 12.7344 24.6761 12.6959 24.5892C12.6574 24.5022 12.6541 24.4039 12.6866 24.3146ZM10.0844 8.59674C10.0844 8.59674 11.6957 10.1919 12.9422 10.3571C12.4396 11.5307 10.2682 11.6275 10.0844 8.59674ZM18.9593 15.7664C19.0374 15.7871 19.1081 15.829 19.1634 15.8874C19.2188 15.9458 19.2565 16.0184 19.2725 16.097C19.2884 16.1756 19.2819 16.257 19.2537 16.3321C19.2254 16.4072 19.1766 16.473 19.1127 16.5221C19.0488 16.5711 18.9723 16.6015 18.8919 16.6097C18.8115 16.618 18.7304 16.6038 18.6577 16.5687C18.585 16.5337 18.5237 16.4792 18.4805 16.4114C18.4374 16.3436 18.4142 16.2652 18.4136 16.1851C18.4322 16.0588 18.4995 15.9446 18.6012 15.8665C18.703 15.7884 18.8314 15.7525 18.9593 15.7664ZM19.6199 17.9141C19.7159 17.9145 19.8094 17.9446 19.8873 18.0004C19.9651 18.0562 20.0234 18.1347 20.0539 18.225C20.0844 18.3153 20.0856 18.4128 20.0574 18.5038C20.0292 18.5948 19.9729 18.6748 19.8965 18.7325C19.8201 18.7902 19.7274 18.8227 19.6315 18.8254C19.5355 18.8282 19.441 18.801 19.3614 18.7478C19.2818 18.6946 19.2209 18.618 19.1875 18.5288C19.154 18.4395 19.1495 18.3421 19.1747 18.2502C19.1904 18.1478 19.2456 18.0555 19.3287 17.9928C19.4118 17.93 19.5162 17.9018 19.6199 17.9141ZM20.0335 16.6408C20.1312 16.6113 20.236 16.6148 20.3314 16.6509C20.4268 16.687 20.5074 16.7535 20.5604 16.8401C20.6134 16.9266 20.6359 17.0282 20.6242 17.1288C20.6125 17.2295 20.5674 17.3233 20.4959 17.3957C20.3983 17.4252 20.2934 17.4217 20.198 17.3856C20.1026 17.3495 20.022 17.283 19.969 17.1964C19.916 17.1099 19.8936 17.0083 19.9052 16.9077C19.9169 16.8071 19.962 16.7132 20.0335 16.6408ZM8.34679 25.9753C8.30646 26.0143 8.25485 26.0397 8.19919 26.0482C8.14353 26.0566 8.0866 26.0476 8.03637 26.0224C7.98614 25.9971 7.94513 25.9569 7.91907 25.9074C7.89301 25.8579 7.8832 25.8016 7.89103 25.7463C7.89885 25.691 7.92392 25.6395 7.96271 25.599C8.00151 25.5585 8.05209 25.5311 8.10738 25.5206C8.16268 25.51 8.21991 25.5169 8.27108 25.5402C8.32225 25.5635 8.36479 25.6021 8.39274 25.6506C8.42891 25.7001 8.44432 25.7616 8.43575 25.8221C8.42718 25.8827 8.3953 25.9376 8.34679 25.9753ZM7.74938 23.2351C7.72468 23.179 7.72285 23.1156 7.74427 23.0583C7.7657 23.0009 7.80871 22.954 7.86427 22.9274C7.886 22.9037 7.91297 22.8853 7.94307 22.8736C7.97318 22.8619 8.0056 22.8573 8.0378 22.8601C8.07 22.8629 8.10112 22.873 8.12871 22.8897C8.15631 22.9064 8.17964 22.9292 8.19687 22.9563C8.21411 22.9835 8.22479 23.0142 8.22808 23.0461C8.23136 23.078 8.22717 23.1102 8.21582 23.1402C8.20447 23.1702 8.18628 23.1972 8.16266 23.2191C8.13905 23.241 8.11065 23.2572 8.07968 23.2664C8.0313 23.3047 7.96978 23.3229 7.90813 23.3171C7.84648 23.3112 7.78955 23.2818 7.74938 23.2351ZM7.60003 24.722C7.5206 24.7979 7.41918 24.8473 7.30999 24.8633C7.20081 24.8792 7.08934 24.8608 6.99123 24.8107C6.89311 24.7606 6.81328 24.6813 6.76292 24.5839C6.71257 24.4865 6.69421 24.3759 6.71044 24.2676C6.72666 24.1594 6.77666 24.0589 6.8534 23.9802C6.93014 23.9016 7.02978 23.8487 7.13835 23.8291C7.24692 23.8095 7.35896 23.824 7.45876 23.8707C7.55855 23.9175 7.6411 23.994 7.69481 24.0896C7.76511 24.1865 7.79454 24.3068 7.77684 24.4249C7.75914 24.5429 7.69571 24.6495 7.60003 24.722ZM6.69244 23.0983C6.60767 23.1236 6.51704 23.1215 6.4335 23.0926C6.34996 23.0636 6.2778 23.0092 6.22735 22.9371C6.17691 22.865 6.15076 22.7789 6.15265 22.6911C6.15454 22.6034 6.18438 22.5185 6.23789 22.4486C6.2914 22.3786 6.36584 22.3273 6.45055 22.3019C6.53526 22.2765 6.62591 22.2784 6.7095 22.3072C6.7931 22.336 6.86536 22.3903 6.91595 22.4623C6.96654 22.5343 6.99286 22.6203 6.99114 22.7081C7.00187 22.8026 6.97524 22.8975 6.91686 22.9729C6.85848 23.0484 6.77289 23.0984 6.67808 23.1126L6.69244 23.0983ZM7.63163 20.9192C7.66491 20.9001 7.70292 20.8906 7.74138 20.8917C7.77984 20.8928 7.81722 20.9045 7.84932 20.9256C7.88142 20.9466 7.90696 20.9761 7.92309 21.0107C7.93921 21.0454 7.94526 21.0838 7.94057 21.1217C7.93588 21.1596 7.92063 21.1954 7.89654 21.2251C7.87244 21.2549 7.84046 21.2774 7.80418 21.2901C7.7679 21.3028 7.72877 21.3052 7.69118 21.297C7.6536 21.2889 7.61905 21.2705 7.59142 21.244C7.55461 21.1951 7.53825 21.1341 7.54574 21.0736C7.55323 21.0131 7.584 20.9578 7.63163 20.9192ZM4.03284 18.4354C4.00608 18.4803 3.96737 18.5171 3.92095 18.5417C3.87453 18.5664 3.82218 18.5778 3.76962 18.575C3.71706 18.5721 3.66631 18.5549 3.62292 18.5254C3.57953 18.4958 3.54516 18.455 3.52357 18.4074C3.50198 18.3598 3.494 18.3072 3.50051 18.2554C3.50701 18.2036 3.52774 18.1545 3.56044 18.1136C3.59314 18.0727 3.63655 18.0415 3.68592 18.0234C3.7353 18.0053 3.78874 18.001 3.84041 18.011C3.92196 18.0428 3.98773 18.105 4.02368 18.1843C4.05963 18.2636 4.06292 18.3537 4.03284 18.4354ZM2.34403 18.7202C2.01373 18.7943 1.66907 18.5094 1.57429 18.0879C1.47951 17.6663 1.6662 17.2618 1.99362 17.1877C2.32105 17.1137 2.66858 17.3985 2.76336 17.8201C2.85814 18.2417 2.67145 18.6462 2.34403 18.7202ZM1.7696 15.8717C1.80786 15.805 1.86425 15.7502 1.93235 15.7137C2.00045 15.6771 2.07753 15.6603 2.15481 15.665C2.23209 15.6698 2.30647 15.696 2.36949 15.7406C2.4325 15.7852 2.48162 15.8465 2.51126 15.9174C2.54089 15.9884 2.54985 16.0662 2.53712 16.1419C2.52438 16.2176 2.49046 16.2883 2.43922 16.3459C2.38797 16.4035 2.32146 16.4456 2.24726 16.4675C2.17305 16.4895 2.09413 16.4903 2.01947 16.4699C1.90797 16.4215 1.81967 16.3322 1.77309 16.2207C1.72651 16.1092 1.72526 15.9842 1.7696 15.8717ZM26.1311 18.2331C26.5159 18.4211 26.2488 20.1672 24.8989 20.0448C23.503 19.9137 24.2038 18.8 25.3613 17.0767C28.199 12.8609 24.379 9.43989 21.2484 10.4653C20.1611 10.8952 19.1645 11.5232 18.3102 12.3168C22.2738 5.92487 19.5338 -0.0170541 13.7694 3.67796e-05H13.6746C12.9594 0.0142792 7.53397 0.507066 7.37888 6.55153C7.31282 8.87874 8.39849 10.3486 9.32331 12.3966C10.4348 14.8691 10.2079 17.5865 6.68382 17.145C7.62014 16.9713 8.22329 16.6237 8.59666 16.1936C8.15436 16.1537 7.66035 15.8575 7.20368 15.2508C6.58043 14.4219 6.51149 14.0886 5.83654 13.7098C3.05057 12.1488 0.195668 14.9061 0.910829 17.917C1.70067 21.2326 4.2023 21.4946 3.29183 23.3291C2.38136 25.1635 -0.611402 23.7991 0.841899 21.3009C-0.39312 22.3207 -0.0599521 24.0098 0.517347 24.8672C1.37899 26.1462 4.18793 26.5023 5.39998 24.7903C4.59003 22.8989 3.7169 19.5947 7.12326 18.8854C11.1758 18.0451 9.9638 18.1989 10.7795 17.4213C10.274 19.5064 7.48802 18.5123 6.33629 19.9422C5.03522 21.5545 5.92271 23.7649 5.96866 23.876C6.41384 24.8644 7.27835 25.9411 8.64836 27.0093C9.06482 27.4907 9.42671 28.0632 9.30895 28.7782C9.13662 29.8264 7.43345 29.8521 7.38462 28.462C7.23527 29.0317 7.30707 30.1027 8.53348 30.3505C9.75988 30.5984 11.5033 28.8466 11.0466 27.0663C10.5899 25.286 10.4004 25.1065 10.4549 24.0554C10.5583 22.0615 12.7526 20.9933 13.4793 20.9648C9.90923 22.9758 11.2046 31 16.7191 31C21.3145 31 21.0273 25.736 18.2959 26.1263C16.5726 26.3684 16.6013 27.5505 16.6013 27.5505C17.0635 27.3946 17.5593 27.3641 18.0374 27.4622C19.0512 27.7698 19.2063 29.1286 18.1092 29.7153C16.7564 30.4389 14.5592 29.1456 16.2509 26.0835C16.4088 25.845 16.6025 25.6318 16.8253 25.4512C16.1877 25.3201 15.2772 24.853 15.0274 23.2835C14.7114 21.2895 15.9436 19.683 15.1624 19.6346C15.7109 18.4439 17.3911 18.1876 16.6616 19.7286C16.4003 20.2755 13.7694 23.5028 17.0982 25.1663C19.7176 25.8813 23.7443 23.0698 23.9741 25.3372C23.7989 26.2858 22.7707 26.6931 22.2709 26.4766C22.5954 26.6418 23.6495 27.0862 24.5313 26.32C26.4211 24.6764 25.2378 21.9048 22.2594 22.3748C18.7066 22.9445 18.3878 21.4462 19.9962 20.0419C21.326 18.8797 21.6821 17.6805 21.4495 16.6722C21.4251 16.6432 21.4057 16.6105 21.392 16.5753C21.0273 15.3077 18.8416 13.1571 15.5558 16.0711C16.0039 15.5641 17.1326 14.4988 18.6635 14.2737C19.6314 14.1342 20.9009 14.3706 21.6103 15.1283C22.1101 14.1997 22.7391 14.5586 22.8769 15.0827C23.0349 15.6866 20.8664 19.0136 22.1646 20.4008C23.4628 21.788 25.8209 21.2952 26.5533 20.3695C27.5154 19.1731 26.6595 18.4354 26.1282 18.236L26.1311 18.2331Z" fill="#D9D9D9"/>
</g>
<defs>
<clipPath id="clip0_1036_5245">
<rect width="121" height="31" fill="white"/>
</clipPath>
</defs>
</svg>
