<svg width="32" height="32" viewBox="0 0 32 32" xmlns="http://www.w3.org/2000/svg">
  <rect x="0.5" y="0.5" width="31" height="31" rx="9.5" stroke="#398166"/>
  <path d="M23.3764 11.0301C22.7988 10.2985 21.7325 10 19.6961 10H12.3038C10.2207 10 9.13636 10.3177 8.56098 11.0967C8 11.8562 8 12.9752 8 14.524V17.476C8 20.4766 8.6656 22 12.3038 22H19.6961C21.4621 22 22.4407 21.7366 23.0738 21.0909C23.723 20.4288 24 19.3477 24 17.476V14.524C24 12.8907 23.9566 11.765 23.3764 11.0301ZM18.2721 16.4076L14.9153 18.2772C14.8402 18.319 14.7581 18.3398 14.6762 18.3398C14.5834 18.3398 14.4908 18.3131 14.4088 18.2602C14.2543 18.1605 14.1601 17.9821 14.1601 17.7897V14.0624C14.1601 13.8704 14.2541 13.6921 14.4082 13.5924C14.5624 13.4926 14.7541 13.4858 14.9141 13.5743L18.2709 15.4319C18.4417 15.5264 18.5489 15.7143 18.5492 15.9193C18.5494 16.1245 18.4426 16.3126 18.2721 16.4076Z" fill="currentColor"/>
</svg>
