<?xml version="1.0" encoding="utf-8"?><svg width="32" height="32" xmlns="http://www.w3.org/2000/svg" viewBox="0 0 32 32"><rect x=".5" y=".5" width="31" height="31" rx="9.5" stroke="#398166"/><path d="M10.006 18.93c.031-.157.056-.314.097-.467.122-.46.344-.87.681-1.212.853-.858 1.696-1.725 2.57-2.564 1.256-1.205 3.37-.917 4.276.558l.029.047c-.166.178-.31.369-.488.516-.268.226-.646.188-.915-.066a1.407 1.407 0 00-1.018-.4 1.34 1.34 0 00-.959.397c-.825.82-1.65 1.64-2.467 2.47a1.397 1.397 0 00.009 1.963 1.393 1.393 0 001.97.022 105.93 105.93 0 001.566-1.565c.08-.082.14-.107.259-.063a3.324 3.324 0 001.555.157c.019-.004.038-.004.082-.004-.041.044-.07.075-.1.104a806.46 806.46 0 00-2.302 2.304 2.832 2.832 0 01-1.728.854c-.018.003-.034.013-.053.019h-.515c-.025-.006-.05-.019-.078-.022-1.153-.175-1.934-.814-2.33-1.91-.072-.2-.097-.416-.147-.622.006-.176.006-.348.006-.517z" fill="currentColor"/><path d="M22 13.07c-.047.203-.081.412-.14.613a2.466 2.466 0 01-.603 1.033c-.86.87-1.715 1.743-2.596 2.589-1.096 1.051-2.902.989-3.945-.12-.143-.153-.259-.328-.368-.469.178-.194.321-.388.5-.539.265-.219.64-.181.905.07.231.215.497.35.81.388.458.056.855-.076 1.186-.401.387-.382.768-.767 1.153-1.152.427-.429.858-.852 1.283-1.287.744-.757.422-2.028-.59-2.325-.522-.154-.993-.041-1.384.338-.537.522-1.062 1.058-1.59 1.59-.056.056-.102.069-.18.04a3.442 3.442 0 00-1.603-.172c-.019.004-.034.004-.072.007a.953.953 0 01.063-.072c.796-.799 1.59-1.603 2.395-2.392a2.8 2.8 0 014.295.432c.253.376.406.789.46 1.236.002.025.012.05.021.079v.513zM10.006 19.442c.047.21.072.426.147.623.397 1.096 1.178 1.735 2.33 1.91.025.003.05.016.078.022h-2.555v-2.555z" fill="currentColor"/></svg>