<?xml version="1.0" encoding="utf-8"?><svg width="180" height="180" fill="none" xmlns="http://www.w3.org/2000/svg" viewBox="0 0 180 180"><path d="M168 144.913c0 2.534-1.641 5.313-5.478 8.157-3.798 2.816-9.422 5.436-16.552 7.672-14.235 4.463-34.024 7.255-55.97 7.255-21.946 0-41.735-2.792-55.97-7.255-7.13-2.236-12.754-4.856-16.552-7.672-3.837-2.844-5.478-5.623-5.478-8.157s1.641-5.313 5.478-8.158c3.798-2.816 9.422-5.436 16.552-7.671 14.235-4.464 34.024-7.256 55.97-7.256 21.946 0 41.735 2.792 55.97 7.256 7.13 2.235 12.754 4.855 16.552 7.671 3.837 2.845 5.478 5.624 5.478 8.158z" stroke="#398166" stroke-width="4"/><path d="M168 123.217c0 2.534-1.641 5.314-5.478 8.158-3.798 2.816-9.422 5.436-16.552 7.672-14.235 4.463-34.024 7.255-55.97 7.255-21.946 0-41.735-2.792-55.97-7.255-7.13-2.236-12.754-4.856-16.552-7.672-3.837-2.844-5.478-5.624-5.478-8.158s1.641-5.313 5.478-8.157c3.798-2.816 9.422-5.436 16.552-7.672 14.235-4.463 34.024-7.255 55.97-7.255 21.946 0 41.735 2.792 55.97 7.255 7.13 2.236 12.754 4.856 16.552 7.672 3.837 2.844 5.478 5.623 5.478 8.157z" stroke="#398166" stroke-width="4"/><path d="M168 100.849c0 2.651-1.669 5.521-5.498 8.436-3.798 2.892-9.42 5.582-16.547 7.877-14.23 4.582-34.013 7.449-55.955 7.449s-41.725-2.867-55.956-7.449c-7.126-2.295-12.748-4.985-16.546-7.877C13.67 106.37 12 103.5 12 100.849c0-2.652 1.67-5.522 5.498-8.437 3.798-2.892 9.42-5.582 16.546-7.877 14.23-4.582 34.014-7.45 55.956-7.45s41.725 2.868 55.955 7.45c7.127 2.295 12.749 4.985 16.547 7.877 3.829 2.915 5.498 5.785 5.498 8.437z" stroke="#398166" stroke-width="4"/><path d="M168 79.153c0 2.652-1.669 5.522-5.498 8.437-3.798 2.892-9.42 5.581-16.547 7.876-14.23 4.583-34.013 7.45-55.955 7.45s-41.725-2.867-55.956-7.45c-7.126-2.294-12.748-4.984-16.546-7.876C13.67 84.675 12 81.805 12 79.153c0-2.651 1.67-5.521 5.498-8.437 3.798-2.891 9.42-5.581 16.546-7.876 14.23-4.583 34.014-7.45 55.956-7.45s41.725 2.867 55.955 7.45c7.127 2.295 12.749 4.985 16.547 7.876 3.829 2.916 5.498 5.786 5.498 8.437z" stroke="#398166" stroke-width="4"/><path d="M168 56.78c0 2.534-1.641 5.313-5.478 8.157-3.798 2.816-9.422 5.437-16.552 7.672-14.235 4.464-34.024 7.256-55.97 7.256-21.946 0-41.735-2.792-55.97-7.256-7.13-2.235-12.754-4.856-16.552-7.672C13.64 62.093 12 59.314 12 56.78s1.641-5.313 5.478-8.157c3.798-2.816 9.422-5.437 16.552-7.672 14.235-4.464 34.024-7.256 55.97-7.256 21.946 0 41.735 2.792 55.97 7.256 7.13 2.235 12.754 4.856 16.552 7.672 3.837 2.844 5.478 5.623 5.478 8.157z" stroke="#398166" stroke-width="4"/><path d="M168 35.085c0 2.534-1.641 5.313-5.478 8.157-3.798 2.816-9.422 5.436-16.552 7.672-14.235 4.463-34.024 7.255-55.97 7.255-21.946 0-41.735-2.792-55.97-7.255-7.13-2.236-12.754-4.856-16.552-7.672C13.64 40.398 12 37.62 12 35.085s1.641-5.314 5.478-8.158c3.798-2.816 9.422-5.436 16.552-7.671C48.265 14.792 68.054 12 90 12c21.946 0 41.735 2.792 55.97 7.256 7.13 2.235 12.754 4.855 16.552 7.671 3.837 2.844 5.478 5.624 5.478 8.158z" stroke="#398166" stroke-width="4"/></svg>