<?xml version="1.0" encoding="utf-8"?><svg width="180" height="180" fill="none" xmlns="http://www.w3.org/2000/svg" viewBox="0 0 180 180"><rect x="80.113" y="15.992" width="19.775" height="19.775" rx="9.888" fill="#398166"/><rect x="163.707" y="77.109" width="19.775" height="19.775" rx="9.888" transform="rotate(90 163.707 77.11)" fill="#398166"/><rect x="134.912" y="27.672" width="19.775" height="19.775" rx="9.888" transform="rotate(45 134.912 27.672)" fill="#398166"/><rect width="19.775" height="19.775" rx="9.888" transform="scale(-1 1) rotate(45 -58.8 -41.342)" fill="#398166"/><rect x="80.113" y="143.633" width="19.775" height="19.775" rx="9.888" fill="#398166"/><rect x="36.066" y="77.109" width="19.775" height="19.775" rx="9.888" transform="rotate(90 36.066 77.11)" fill="#398166"/><rect x="44.656" y="117.93" width="19.775" height="19.775" rx="9.888" transform="rotate(45 44.656 117.93)" fill="#398166"/><rect width="19.775" height="19.775" rx="9.888" transform="scale(-1 1) rotate(45 -212.879 -105.161)" fill="#398166"/></svg>