<?xml version="1.0" encoding="utf-8"?><svg width="37" height="65" fill="none" xmlns="http://www.w3.org/2000/svg" viewBox="0 0 37 65"><path d="M0 44.237v-5.454h5.537v5.454H0zm.032-18.786v-5.454H5.57v5.454H.032zM33.503 65c-2.547-2.87-4.738-6.081-6.573-9.632a52.904 52.904 0 01-4.21-11.131A47.209 47.209 0 0121.295 32.5a47.209 47.209 0 011.425-11.737A52.733 52.733 0 0126.93 9.6c1.835-3.53 4.026-6.73 6.573-9.6L37 2.68c-2.504 2.955-4.598 6.059-6.282 9.312a44.457 44.457 0 00-3.788 10.015A46.358 46.358 0 0025.667 32.5a45.768 45.768 0 001.295 10.493 47.824 47.824 0 003.788 10.11A46.306 46.306 0 0037 62.257L33.503 65z" fill="#398166"/></svg>