<?xml version="1.0" encoding="utf-8"?><svg width="32" height="32" xmlns="http://www.w3.org/2000/svg" viewBox="0 0 32 32"><rect x=".5" y=".5" width="31" height="31" rx="9.5" stroke="#398166"/><path d="M13.333 10A3.334 3.334 0 0010 13.333v5.334A3.334 3.334 0 0013.333 22h5.334A3.334 3.334 0 0022 18.667v-5.334A3.334 3.334 0 0018.667 10h-5.334zM20 11.333a.667.667 0 110 1.334.667.667 0 010-1.334zm-4 1.334a3.334 3.334 0 110 6.667 3.334 3.334 0 010-6.667zM16 14a2 2 0 100 4 2 2 0 000-4z" fill="currentColor"/></svg>