<?xml version="1.0" encoding="utf-8"?><svg width="120" height="36" fill="none" xmlns="http://www.w3.org/2000/svg" viewBox="0 0 120 36"><g clip-path="url(#kclip0_901_34622)" fill="#398166"><path fill-rule="evenodd" clip-rule="evenodd" d="M0 16.833l6.204-6.227V6.727h3.863L16.271.5l6.204 6.227h3.863v3.879l6.204 6.227-6.204 6.228v3.878h-3.863l-6.204 6.227-6.204-6.227H6.204V23.06L0 16.833zm6.204 4.185c2.402-2.907 6.025-4.762 10.067-4.762 3.12 0 5.665-2.555 5.665-5.686a5.675 5.675 0 00-1.495-3.843l-4.17-4.185L2.034 16.833l4.17 4.186zm20.134-8.37c-2.402 2.907-6.025 4.762-10.067 4.762-3.12 0-5.664 2.555-5.664 5.686 0 1.48.567 2.83 1.495 3.843l4.17 4.185 14.237-14.291-4.17-4.186z"/><path fill-rule="evenodd" clip-rule="evenodd" d="M5.009 7.217a1.63 1.63 0 011.627-1.633h3.296c.434 0 .85-.174 1.156-.484l4.027-4.08a1.623 1.623 0 012.312 0l4.026 4.08c.306.31.722.484 1.156.484h3.296a1.63 1.63 0 011.627 1.633v3.372c0 .43.17.843.472 1.15l4.055 4.109a1.638 1.638 0 010 2.298l-4.055 4.11a1.636 1.636 0 00-.472 1.15v3.371a1.63 1.63 0 01-1.627 1.633H22.61c-.434 0-.85.175-1.156.484l-4.026 4.081a1.623 1.623 0 01-2.312 0l-4.027-4.08a1.624 1.624 0 00-1.156-.485H6.636a1.63 1.63 0 01-1.627-1.633v-3.372c0-.43-.17-.843-.471-1.149l-4.055-4.11a1.638 1.638 0 010-2.298l4.055-4.11c.302-.306.47-.719.47-1.15v-3.37zm-3.53 8.63a1.638 1.638 0 000 2.3l4.938 5.004 1.811 1.893 1.97 1.94 4.917 4.982a1.623 1.623 0 002.312 0l4.916-4.982 2.03-1.94 1.752-1.893 4.938-5.005a1.637 1.637 0 000-2.298l-4.938-5.005-1.914-2.057-1.868-1.776-4.916-4.982a1.623 1.623 0 00-2.312 0L1.478 15.848z"/><path d="M41.732 28.5V18.306h10.902V28.5h4.035V5.73h-4.035v8.886H41.732V5.73h-4.068V28.5h4.068zM67.449 11.676c-2.31 0-4.263.816-5.858 2.482-1.562 1.634-2.343 3.66-2.343 6.11s.781 4.474 2.343 6.14c1.595 1.666 3.547 2.483 5.858 2.483 2.603 0 4.49-.85 5.63-2.58.162.849.618 1.502 1.334 1.992.586.36 1.334.523 2.278.523.846 0 1.497-.098 1.92-.262v-3.168c-.293.032-.586.065-.814.065-.878 0-1.204-.523-1.204-1.927V12.035h-3.905v2.385c-.618-1.568-2.603-2.744-5.24-2.744zm.52 13.622c-1.399 0-2.538-.49-3.482-1.438-.91-.947-1.366-2.156-1.366-3.593 0-1.437.455-2.646 1.366-3.593.944-.948 2.083-1.438 3.482-1.438 1.4 0 2.604.49 3.547 1.438.977.947 1.465 2.156 1.465 3.593 0 1.437-.488 2.646-1.465 3.593-.943.948-2.147 1.438-3.547 1.438zM79.77 23.632c0 3.56 1.724 5.324 5.174 5.324.78 0 1.4-.065 1.855-.195v-3.496c-.326.098-.716.13-1.172.13-1.432 0-1.952-.685-1.952-2.286V5.73h-3.906v17.902zM88.794 35.228a6.826 6.826 0 001.92.262c1.66 0 2.962-.458 3.938-1.372.683-.686 1.269-1.666 1.757-2.94l7.355-19.143h-3.938l-4.523 12.413-4.816-12.413h-3.938l6.866 17.085-.423 1.176c-.26.686-.586 1.176-.944 1.405-.358.228-.813.359-1.431.359-.716 0-1.335-.098-1.823-.262v3.43zM108.736 28.5v-4.803l1.627-1.83 5.174 6.632h4.426l-7.094-9.114 6.411-7.35h-4.491l-6.053 6.99V5.73h-3.873V28.5h3.873z"/></g><defs><clipPath id="kclip0_901_34622"/></defs></svg>