<?xml version="1.0" encoding="utf-8"?><svg width="121" height="31" fill="none" xmlns="http://www.w3.org/2000/svg" viewBox="0 0 121 31"><g clip-path="url(#nclip0_1128_14021)" fill="#8A8A8A"><path d="M36.009 21.699c-2.5 0-4.522-1.968-4.522-4.835 0-2.993 1.734-5.13 4.739-5.13 2.398 0 4.521 1.785 4.521 4.835 0 2.923-1.719 5.13-4.738 5.13zm.029-8.264c-1.46 0-2.514 1.166-2.514 3.134 0 2.319.867 3.457 2.673 3.457 1.531 0 2.513-1.068 2.513-3.19 0-2.263-.996-3.412-2.672-3.412v.01zM48.188 16.386c-.26-.435-.997-.787-2.11-.787a2.147 2.147 0 00-1.484.583 2.032 2.032 0 00-.64 1.427c0 1.377.839 2.319 2.153 2.319 1.113 0 1.777-.352 2.052-.703h.072v.871c0 .914-.91 1.575-2.312 1.575a4.024 4.024 0 01-1.512-.27 3.94 3.94 0 01-1.29-.814 3.82 3.82 0 01-.869-1.233 3.73 3.73 0 01-.316-1.464c0-2.164 1.546-4.02 4.204-4.02 1.242 0 2.124.731 2.124 1.63v.886h-.072zM52.926 21.685c-1.546 0-3.337-.478-3.337-2.558V13.94h.332c1.127 0 1.604.464 1.604 1.349v1.335a3.52 3.52 0 011.517-.422c1.863 0 3.12 1.195 3.12 2.77 0 1.573-1.213 2.712-3.236 2.712zm-.188-4.045a2.79 2.79 0 00-1.213.365v1.167c0 .73.78 1.012 1.416 1.012.765 0 1.256-.45 1.256-1.265s-.638-1.28-1.459-1.28zM66.03 21.53c-.708 0-1.17-.365-1.17-1.124 0-.76-.13-2.895-.26-4.062-.116.281-.26.647-.42 1.096-.274.815-1.011 3.064-1.56 4.076h-.419c-.65 0-1.112-.492-1.661-2.066-.246-.717-.708-2.305-1.084-3.134-.188 1.574-.332 3.85-.332 5.2h-.737a1.15 1.15 0 01-.828-.319 1.09 1.09 0 01-.328-.805c.066-2.174.332-4.338.795-6.465h.708c1.863 0 2.427 2.375 2.918 3.766.159.436.231.886.42 1.307.36-1.04.837-2.375 1.227-3.33.25-.64.617-1.23 1.084-1.743h.404c1.026 0 1.488.604 1.618 1.616.202 1.644.448 3.963.477 5.973l-.853.014zM72.27 21.628c-2.629 0-3.828-1.18-3.828-3.541V13.94h.332c1.127 0 1.604.464 1.604 1.349v2.867c0 1.321.621 1.87 1.791 1.87.4-.002.797-.049 1.185-.141V13.94h.332c1.127 0 1.604.464 1.604 1.349v5.903c-.98.281-1.997.428-3.02.435zM83.554 21.53c-.925 0-1.46-.464-1.46-1.35v-1.868h-2.99v3.218h-.477c-.924 0-1.459-.464-1.459-1.35v-6.24h.332c1.127 0 1.604.465 1.604 1.35v1.56h2.99v-2.91h.333c1.127 0 1.603.465 1.603 1.35v6.24h-.476zM89.231 21.699c-2.34 0-3.684-1.813-3.684-3.823 0-2.277 1.344-4.104 3.858-4.104 2.34 0 3.684 1.827 3.684 3.837 0 2.28-1.344 4.09-3.858 4.09zm0-6.24c-1.112 0-1.676.9-1.676 2.15 0 1.504.564 2.403 1.85 2.403 1.126 0 1.675-.9 1.675-2.136 0-1.518-.577-2.417-1.849-2.417zM102.465 17.426a23.273 23.273 0 001.762 2.305c.636.675.896.801 1.401.914-.101.59-.418.941-1.242.941a1.639 1.639 0 01-1.185-.478c-.953-.998-1.719-2.15-2.542-3.246v3.654h-.477c-.925 0-1.46-.464-1.46-1.35v-2.318c-.837 1.096-1.588 2.248-2.542 3.246a1.685 1.685 0 01-.55.356 1.725 1.725 0 01-.649.122c-.823 0-1.141-.351-1.242-.941.505-.113.765-.24 1.401-.914a21.34 21.34 0 001.763-2.305 37.859 37.859 0 00-3.182-3.4v-.071h1.358c.665 0 .983.154 1.214.393a28.984 28.984 0 012.441 2.91V13.94h.333c1.127 0 1.603.464 1.603 1.349v1.968a29.09 29.09 0 012.427-2.91c.246-.239.564-.393 1.214-.393h1.372v.07a39.523 39.523 0 00-3.218 3.401zM112.592 21.575a1.923 1.923 0 01-1.271-.52 32.422 32.422 0 01-2.716-3.232v3.71h-.622c-.895 0-1.329-.45-1.329-1.335V13.94h.621c.939 0 1.33.52 1.33 1.25v1.996a23.13 23.13 0 012.383-2.754c.463-.422.925-.492 1.546-.492h1.124v.07a40.307 40.307 0 00-3.178 3.443c.621.745 1.228 1.518 1.921 2.207.694.688 1.026.843 1.503.984-.2.604-.518.93-1.312.93zM118.053 21.657h-.39c-1.849 0-3.121-1.012-3.121-2.404 0-1.349 1.012-2.375 3.872-2.375h.679v-.098c0-1.068-.52-1.406-1.676-1.406-1.401 0-2.181.52-2.47.872h-.072v-.59c0-.844.78-1.856 2.831-1.856 1.734 0 3.294.787 3.294 3.401v1.743c0 1.602-1.214 2.713-2.947 2.713zm1.054-3.43h-.693c-1.474 0-1.893.338-1.893.956 0 .618.492.942 1.344.942.852 0 1.242-.394 1.242-1.167v-.73zM31.712 27.755v-3.623h.396v3.623h-.396zM34.683 25.012c.228 0 .428.043.6.129.175.083.31.21.407.383.1.173.15.39.15.652v1.58h-.38v-1.543c0-.287-.076-.503-.226-.648-.146-.148-.353-.222-.62-.222-.2 0-.376.04-.526.119a.814.814 0 00-.342.336 1.096 1.096 0 00-.118.529v1.428h-.38v-2.718h.364v.746l-.06-.14a.987.987 0 01.43-.46c.196-.114.43-.171.7-.171zM37.756 27.781c-.264 0-.468-.069-.61-.207-.144-.138-.215-.333-.215-.585v-2.552h.38v2.531c0 .16.041.282.123.368.086.086.207.13.364.13a.626.626 0 00.418-.14l.134.264a.708.708 0 01-.273.145c-.104.03-.21.046-.321.046zm-1.328-2.438v-.306h1.74v.306h-1.74zM40.137 27.781c-.293 0-.55-.058-.771-.176a1.348 1.348 0 01-.52-.492 1.383 1.383 0 01-.187-.72c0-.268.059-.507.177-.714.121-.207.285-.369.492-.486.211-.121.447-.181.707-.181.265 0 .498.058.702.176.207.114.37.276.487.486.118.207.177.447.177.72a.334.334 0 01-.005.057v.057h-2.448v-.275h2.244l-.15.109c0-.197-.044-.371-.134-.523a.923.923 0 00-.353-.362 1.023 1.023 0 00-.52-.13c-.192 0-.365.043-.52.13a.913.913 0 00-.358.362 1.087 1.087 0 00-.128.533v.057c0 .207.046.39.139.55.096.154.228.277.396.367.172.086.366.129.584.129.171 0 .33-.03.476-.088a.99.99 0 00.386-.27l.214.239a1.2 1.2 0 01-.471.331c-.186.076-.39.114-.616.114zM43.375 28.785a2.5 2.5 0 01-.74-.108 1.472 1.472 0 01-.572-.31l.192-.28c.132.114.295.203.488.269.196.069.403.103.62.103.358 0 .62-.08.788-.243.168-.159.252-.407.252-.745v-.679l.053-.466-.037-.465v-.824h.364v2.387c0 .47-.12.813-.359 1.03-.235.221-.585.331-1.05.331zm-.07-1.133c-.268 0-.509-.056-.723-.166a1.316 1.316 0 01-.509-.471c-.121-.2-.182-.43-.182-.689 0-.258.06-.486.182-.683.125-.2.295-.355.509-.466.214-.11.455-.165.723-.165.25 0 .475.05.675.15.2.1.359.248.476.445.118.197.177.437.177.72 0 .282-.059.522-.177.72a1.178 1.178 0 01-.476.45c-.2.103-.425.155-.675.155zm.038-.326c.206 0 .39-.042.551-.125a.994.994 0 00.38-.352.982.982 0 00.14-.523.956.956 0 00-.14-.517.956.956 0 00-.38-.347 1.149 1.149 0 00-.551-.13c-.204 0-.388.044-.552.13a.956.956 0 00-.38.347.985.985 0 00-.134.517c0 .197.044.372.134.523.092.149.22.266.38.352.164.083.348.125.552.125zM45.841 27.755v-2.718h.364v.74l-.037-.129a.89.89 0 01.396-.47c.186-.111.416-.166.69-.166v.357h-.042a.18.18 0 00-.043-.005c-.296 0-.528.088-.696.264-.168.172-.252.419-.252.74v1.387h-.38zM49.502 27.755v-.6l-.017-.099v-1.004c0-.231-.067-.409-.203-.533-.132-.124-.33-.186-.594-.186-.183 0-.356.029-.52.088a1.336 1.336 0 00-.418.233l-.171-.275c.143-.117.314-.207.514-.27.2-.065.41-.097.632-.097.364 0 .644.088.84.264.2.172.3.436.3.792v1.687h-.364zm-.97.026c-.21 0-.394-.033-.551-.098a.837.837 0 01-.354-.28.72.72 0 01-.123-.414c0-.141.034-.27.102-.383a.726.726 0 01.342-.28c.161-.072.375-.108.643-.108h.97v.274h-.96c-.27 0-.46.047-.567.14a.448.448 0 00-.155.347c0 .155.062.28.187.373.125.093.3.14.525.14.214 0 .398-.047.552-.14a.833.833 0 00.342-.415l.086.254a.868.868 0 01-.375.43c-.175.107-.396.16-.664.16zM51.787 27.781c-.264 0-.467-.069-.61-.207-.143-.138-.214-.333-.214-.585v-2.552h.38v2.531c0 .16.041.282.123.368.086.086.207.13.364.13a.626.626 0 00.418-.14l.134.264a.707.707 0 01-.273.145c-.104.03-.21.046-.322.046zm-1.328-2.438v-.306h1.74v.306h-1.74zM54.12 27.781c-.27 0-.515-.058-.733-.176a1.369 1.369 0 01-.509-.492 1.383 1.383 0 01-.187-.72c0-.272.062-.512.187-.719.125-.207.295-.37.509-.486.214-.118.459-.176.734-.176.278 0 .524.058.739.176.218.117.387.28.508.486.125.207.188.447.188.72 0 .269-.063.509-.188.72a1.319 1.319 0 01-.508.491 1.534 1.534 0 01-.74.176zm0-.326c.204 0 .385-.043.542-.13a.967.967 0 00.37-.372c.092-.162.138-.349.138-.56 0-.213-.046-.4-.139-.558a.93.93 0 00-.37-.368 1.06 1.06 0 00-.535-.134c-.2 0-.378.044-.535.134a.968.968 0 00-.375.368c-.093.158-.14.345-.14.559 0 .21.047.397.14.559.093.159.217.283.374.373.158.086.334.129.53.129zM56.332 27.755v-2.718h.364v.74l-.037-.129a.89.89 0 01.396-.47c.186-.111.416-.166.691-.166v.357h-.043a.18.18 0 00-.043-.005c-.296 0-.528.088-.696.264-.168.172-.252.419-.252.74v1.387h-.38zM60.456 27.755l-1.06-2.718h.364l.964 2.522h-.166l.99-2.522h.328l.98 2.522h-.166l.98-2.522h.348l-1.066 2.718h-.359l-.942-2.37h.112l-.948 2.37h-.359zM65.706 27.781c-.293 0-.55-.058-.771-.176a1.348 1.348 0 01-.52-.492 1.383 1.383 0 01-.187-.72c0-.268.059-.507.177-.714.121-.207.285-.369.492-.486.211-.121.447-.181.707-.181.264 0 .498.058.702.176.207.114.37.276.487.486.118.207.177.447.177.72a.334.334 0 01-.005.057v.057h-2.448v-.275h2.244l-.15.109c0-.197-.045-.371-.134-.523a.924.924 0 00-.353-.362 1.023 1.023 0 00-.52-.13c-.193 0-.366.043-.52.13a.913.913 0 00-.358.362 1.086 1.086 0 00-.129.533v.057c0 .207.047.39.14.55.096.154.228.277.396.367.171.086.366.129.584.129.171 0 .33-.03.476-.088a.99.99 0 00.386-.27l.214.239a1.201 1.201 0 01-.471.331 1.613 1.613 0 01-.616.114zM69.195 27.781c-.246 0-.468-.053-.664-.16a1.196 1.196 0 01-.466-.477 1.533 1.533 0 01-.171-.75c0-.297.057-.547.171-.75.118-.208.275-.365.471-.472.197-.107.416-.16.66-.16.267 0 .506.058.717.176.214.114.382.274.503.481.121.207.182.449.182.725 0 .272-.06.514-.182.725-.121.207-.29.369-.503.486a1.45 1.45 0 01-.718.176zm-1.451-.026v-3.84h.38v1.925l-.053.549.037.548v.818h-.364zm1.424-.3c.2 0 .379-.043.536-.13.157-.09.282-.213.375-.372.093-.162.139-.349.139-.56 0-.213-.046-.4-.14-.558a.968.968 0 00-.374-.368 1.06 1.06 0 00-.536-.134c-.2 0-.38.044-.54.134a.967.967 0 00-.375.368c-.09.158-.134.345-.134.559 0 .21.044.397.134.559.092.159.217.283.374.373.161.086.341.129.541.129zM73.642 27.786c-.27 0-.528-.041-.77-.124a1.6 1.6 0 01-.58-.342l.188-.295c.122.121.284.221.488.3.207.08.432.12.674.12.311 0 .549-.066.713-.197a.636.636 0 00.251-.528.64.64 0 00-.246-.528c-.16-.131-.416-.197-.766-.197h-.267v-.274l1.156-1.403.054.145h-2.089v-.332h2.41v.264l-1.157 1.403-.187-.119h.145c.45 0 .785.097 1.006.29a.938.938 0 01.338.746c0 .203-.05.386-.15.549-.1.162-.252.29-.455.383-.2.093-.452.14-.755.14zM75.835 27.781a.279.279 0 01-.284-.285c0-.082.027-.15.08-.201a.293.293 0 01.204-.078c.079 0 .145.026.198.078a.26.26 0 01.086.201.27.27 0 01-.086.202.265.265 0 01-.198.083zM78.118 27.786c-.29 0-.547-.072-.772-.217a1.503 1.503 0 01-.53-.632c-.128-.276-.193-.607-.193-.994 0-.386.065-.716.193-.988.129-.276.305-.487.53-.632.225-.148.482-.223.772-.223.289 0 .546.075.77.223.226.145.402.355.531.632.132.272.198.602.198.988 0 .387-.066.718-.198.994a1.503 1.503 0 01-.53.632 1.392 1.392 0 01-.771.217zm0-.341a.99.99 0 00.578-.171c.164-.117.293-.287.386-.508.092-.224.139-.498.139-.823 0-.324-.047-.597-.14-.818a1.116 1.116 0 00-.385-.507.97.97 0 00-.578-.176.976.976 0 00-.573.176 1.1 1.1 0 00-.391.507c-.093.221-.14.494-.14.818 0 .325.047.6.14.823.093.221.223.39.39.508.168.114.36.17.574.17zM36.63 3.941v4.03h-.416V4.747l-1.608 2.712h-.204l-1.608-2.695v3.207h-.415v-4.03h.356l1.778 2.988 1.76-2.988h.357zM38.952 4.92c.401 0 .71.1.924.3.214.195.321.487.321.874v1.877H39.8v-.472a.944.944 0 01-.416.368c-.179.089-.393.133-.643.133-.343 0-.616-.08-.819-.242a.776.776 0 01-.304-.639c0-.257.094-.464.281-.622.191-.157.493-.236.907-.236h.976v-.184c0-.261-.074-.459-.222-.593-.148-.138-.365-.207-.65-.207-.194 0-.381.032-.56.098a1.38 1.38 0 00-.463.259l-.187-.306c.156-.13.343-.23.562-.299.218-.073.448-.11.69-.11zm-.146 2.757c.233 0 .434-.051.602-.155a.964.964 0 00.374-.46v-.496h-.965c-.526 0-.79.18-.79.541a.5.5 0 00.205.42c.137.1.328.15.574.15zM44.143 3.7V7.97h-.398v-.599c-.124.204-.29.36-.496.467a1.45 1.45 0 01-.69.16 1.58 1.58 0 01-.784-.195 1.41 1.41 0 01-.55-.547 1.595 1.595 0 01-.199-.8c0-.3.067-.566.2-.8a1.37 1.37 0 01.549-.542 1.58 1.58 0 01.783-.195c.25 0 .474.052.673.155.203.1.368.248.497.443V3.7h.415zm-1.55 3.937c.215 0 .408-.048.58-.144.175-.1.311-.24.409-.42.101-.18.152-.386.152-.616 0-.23-.05-.436-.152-.616a1.007 1.007 0 00-.41-.415 1.13 1.13 0 00-.578-.15c-.219 0-.416.05-.591.15a1.055 1.055 0 00-.41.415c-.097.18-.146.386-.146.616 0 .23.05.436.147.616.1.18.237.32.409.42.175.096.372.144.59.144zM47.978 6.584h-2.573c.023.314.146.57.368.765.222.192.503.288.842.288.191 0 .367-.033.526-.098.16-.069.299-.169.416-.3l.233.266a1.313 1.313 0 01-.514.368 1.732 1.732 0 01-.673.127c-.315 0-.596-.065-.842-.196a1.47 1.47 0 01-.567-.553 1.549 1.549 0 01-.205-.794c0-.296.065-.56.193-.795.133-.234.312-.416.538-.547.23-.13.488-.195.772-.195.285 0 .54.065.766.195.226.131.404.313.532.547.13.23.193.496.193.795l-.005.127zM46.492 5.27a1.06 1.06 0 00-.748.282 1.084 1.084 0 00-.34.725h2.182a1.073 1.073 0 00-1.094-1.007zM51.944 4.92c.288 0 .55.065.783.195.234.127.417.308.55.542.132.234.199.5.199.8 0 .3-.067.566-.2.8a1.41 1.41 0 01-.549.547 1.58 1.58 0 01-.783.196c-.258 0-.49-.054-.696-.161a1.262 1.262 0 01-.491-.467v.599h-.398V3.699h.415v1.82c.129-.196.292-.344.491-.444.203-.103.43-.155.679-.155zm-.03 2.717c.215 0 .41-.048.585-.144.176-.1.312-.24.41-.42.1-.18.151-.386.151-.616 0-.23-.05-.436-.152-.616a1.007 1.007 0 00-.409-.415c-.175-.1-.37-.15-.585-.15-.218 0-.415.05-.59.15a1.055 1.055 0 00-.41.415c-.097.18-.146.386-.146.616 0 .23.049.436.146.616.102.18.238.32.41.42.175.096.372.144.59.144zM56.821 4.943l-1.538 3.39c-.125.285-.269.486-.433.605a.978.978 0 01-.59.179c-.148 0-.287-.023-.415-.07a.9.9 0 01-.334-.207l.193-.305c.156.154.343.23.562.23.14 0 .259-.038.356-.115.102-.076.195-.207.281-.391l.135-.294-1.375-3.022h.433l1.158 2.573 1.158-2.573h.409z"/><path fill-rule="evenodd" clip-rule="evenodd" d="M24.143 13.277a.364.364 0 01.554.175.357.357 0 01-.12.4.364.364 0 01-.56-.154.317.317 0 01.127-.421zm-.611-1.817a.644.644 0 01.676-.328.647.647 0 01.53.53.636.636 0 01-.334.668.65.65 0 01-.746-.099.57.57 0 01-.126-.771zm-1.006.182c-.224-.02-.39-.177-.373-.348a.362.362 0 01.434-.268c.221.02.39.177.373.348a.365.365 0 01-.434.268zm2.39 3.318a.209.209 0 01.292.092.204.204 0 01-.12.28.208.208 0 01-.212-.047.236.236 0 01.04-.325zm.35-2.142a.422.422 0 01.623.255.413.413 0 01-.178.45.423.423 0 01-.631-.232.365.365 0 01.187-.473zm-7.114-8.3c.488.57.71 1.535.342 3.073-.072-.41-.307-1.729-.597-2.279l.255-.789v-.005zm-1.27-.61c-1.185-1.225-3.104-2.085-5.97-1.247 0 0 1.815-1.237 3.969-.855.999.201 1.895.744 2.533 1.532l-.531.57zm-2.18 6.463c1.247-.165 2.873-1.655 2.873-1.655-.029 2.695-2.37 2.829-2.872 1.655zm-.054 19.586a.232.232 0 01-.155-.284.203.203 0 01.148-.212.209.209 0 01.24.098.204.204 0 01.008.18c-.022.142-.132.241-.24.221v-.003zm-1.212-1.95a.324.324 0 01-.463-.113.317.317 0 01.16-.446.324.324 0 01.335.054.357.357 0 01-.032.504zm.362 1.193a.272.272 0 01-.258-.179.266.266 0 01.088-.3.271.271 0 01.418.113c.02.052.024.11.01.163a.233.233 0 01-.258.203zm-1.129-2.504a.649.649 0 01-.588-.464.636.636 0 01.253-.703.65.65 0 01.983.328.636.636 0 01.002.392.57.57 0 01-.65.447zm.018-2.381a.323.323 0 01.298-.167.328.328 0 01.283.192.32.32 0 01-.196.435.327.327 0 01-.179.007.372.372 0 01-.206-.467zM10.084 8.597s1.612 1.595 2.858 1.76c-.502 1.174-2.674 1.27-2.858-1.76zm8.875 7.17a.434.434 0 01.314.33.427.427 0 01-.16.425.436.436 0 01-.7-.337.492.492 0 01.546-.419zm.66 2.147a.462.462 0 01.435.311.452.452 0 01-.157.508.461.461 0 01-.71-.204.452.452 0 01-.012-.279.404.404 0 01.445-.336zm.415-1.273a.463.463 0 01.526.2.452.452 0 01-.064.555.464.464 0 01-.527-.2.453.453 0 01.064-.555zM8.347 25.975a.271.271 0 01-.456-.229.267.267 0 01.216-.225.272.272 0 01.286.13.235.235 0 01-.046.324zm-.598-2.74a.235.235 0 01.115-.308.21.21 0 01.364.12.206.206 0 01-.148.22.24.24 0 01-.33-.032zM7.6 24.722a.531.531 0 01-.837-.138.52.52 0 01.375-.755.533.533 0 01.557.26.456.456 0 01-.095.633zm-.908-1.624a.423.423 0 01-.465-.16.414.414 0 01.224-.636.423.423 0 01.465.16c.05.072.077.158.075.246a.365.365 0 01-.313.405l.014-.015zm.94-2.179a.209.209 0 01.291.092.204.204 0 01-.119.28.208.208 0 01-.213-.047.235.235 0 01.04-.325zm-3.6-2.484a.286.286 0 01-.262.14.29.29 0 01-.246-.168.283.283 0 01.162-.384.29.29 0 01.154-.012.334.334 0 01.193.424zm-1.688.285c-.33.074-.675-.21-.77-.632-.094-.422.092-.826.42-.9.327-.074.675.21.77.632.094.422-.093.826-.42.9zm-.574-2.848a.412.412 0 01.385-.207.416.416 0 01.356.252.407.407 0 01-.264.55.416.416 0 01-.228.003.47.47 0 01-.25-.598zm24.361 2.361c.385.188.118 1.934-1.232 1.812-1.396-.131-.695-1.245.462-2.968 2.838-4.216-.982-7.637-4.113-6.612a9.39 9.39 0 00-2.938 1.852C22.274 5.925 19.534-.017 13.77 0h-.095c-.716.014-6.141.507-6.296 6.552-.066 2.327 1.02 3.797 1.944 5.845 1.112 2.472.885 5.19-2.64 4.748.937-.174 1.54-.521 1.914-.951-.443-.04-.937-.336-1.393-.943-.624-.83-.693-1.162-1.367-1.541C3.05 12.149.196 14.906.91 17.917c.79 3.316 3.291 3.578 2.38 5.412-.91 1.834-3.902.47-2.45-2.028-1.234 1.02-.901 2.709-.324 3.566.862 1.28 3.67 1.635 4.883-.077-.81-1.891-1.683-5.195 1.723-5.905 4.053-.84 2.84-.686 3.657-1.464-.506 2.085-3.292 1.091-4.444 2.521-1.3 1.613-.413 3.823-.367 3.934.445.988 1.31 2.065 2.68 3.133.416.482.778 1.054.66 1.77-.172 1.047-1.876 1.073-1.924-.317-.15.57-.078 1.64 1.148 1.889 1.227.247 2.97-1.504 2.514-3.285-.457-1.78-.647-1.96-.592-3.01.103-1.995 2.298-3.063 3.024-3.091C9.91 22.975 11.205 31 16.72 31c4.595 0 4.308-5.264 1.577-4.874-1.723.242-1.695 1.424-1.695 1.424a2.76 2.76 0 011.436-.088c1.014.308 1.17 1.667.072 2.253-1.353.724-3.55-.57-1.858-3.631.158-.239.351-.452.574-.633-.637-.13-1.548-.598-1.798-2.168-.316-1.994.917-3.6.135-3.648.549-1.191 2.23-1.447 1.5.094-.262.547-2.893 3.774.436 5.437 2.62.715 6.646-2.096 6.876.171-.175.949-1.203 1.356-1.703 1.14.324.165 1.378.61 2.26-.157 1.89-1.644.707-4.415-2.272-3.945-3.552.57-3.871-.929-2.263-2.333 1.33-1.162 1.686-2.362 1.454-3.37a.345.345 0 01-.058-.097c-.365-1.267-2.55-3.418-5.836-.504.448-.507 1.577-1.572 3.107-1.797.968-.14 2.238.097 2.947.854.5-.928 1.13-.57 1.267-.045.158.604-2.01 3.93-.712 5.318 1.298 1.387 3.656.894 4.388-.032.962-1.196.107-1.934-.425-2.133l.003-.003z"/></g><defs><clipPath id="nclip0_1128_14021"><path fill="#fff" d="M0 0h121v31H0z"/></clipPath></defs></svg>