<?xml version="1.0" encoding="utf-8"?><svg width="121" height="31" fill="none" xmlns="http://www.w3.org/2000/svg" viewBox="0 0 121 31"><g clip-path="url(#mclip0_1036_5245)" fill="#D9D9D9"><path d="M36.009 16.828c-2.5 0-4.522-1.968-4.522-4.835 0-2.994 1.734-5.13 4.739-5.13 2.398 0 4.521 1.785 4.521 4.835 0 2.923-1.719 5.13-4.738 5.13zm.029-8.264c-1.46 0-2.514 1.166-2.514 3.134 0 2.319.867 3.457 2.673 3.457 1.531 0 2.513-1.068 2.513-3.19 0-2.263-.996-3.412-2.672-3.412v.01zM48.188 11.515c-.26-.436-.997-.787-2.11-.787a2.147 2.147 0 00-1.484.583 2.032 2.032 0 00-.64 1.427c0 1.377.839 2.319 2.153 2.319 1.113 0 1.777-.352 2.052-.703h.072v.871c0 .914-.91 1.574-2.312 1.574a4.025 4.025 0 01-1.512-.27 3.94 3.94 0 01-1.29-.813 3.82 3.82 0 01-.869-1.234 3.73 3.73 0 01-.316-1.463c0-2.164 1.546-4.02 4.204-4.02 1.242 0 2.124.731 2.124 1.63v.886h-.072zM52.926 16.814c-1.546 0-3.337-.478-3.337-2.558V9.07h.332c1.127 0 1.604.464 1.604 1.349v1.335a3.52 3.52 0 011.517-.422c1.863 0 3.12 1.195 3.12 2.77 0 1.573-1.213 2.712-3.236 2.712zm-.188-4.045a2.79 2.79 0 00-1.213.365v1.167c0 .73.78 1.011 1.416 1.011.765 0 1.256-.45 1.256-1.264 0-.816-.638-1.28-1.459-1.28zM66.03 16.659c-.708 0-1.17-.365-1.17-1.124 0-.76-.13-2.896-.26-4.062-.116.281-.26.646-.42 1.096-.274.815-1.011 3.064-1.56 4.076h-.419c-.65 0-1.112-.492-1.661-2.066-.246-.717-.708-2.305-1.084-3.134-.188 1.574-.332 3.85-.332 5.2h-.737a1.15 1.15 0 01-.828-.319 1.09 1.09 0 01-.328-.806c.066-2.173.332-4.337.795-6.464h.708c1.863 0 2.427 2.375 2.918 3.766.159.436.231.886.42 1.307.36-1.04.837-2.375 1.227-3.33.25-.64.617-1.23 1.084-1.743h.404c1.026 0 1.488.604 1.618 1.616.202 1.644.448 3.963.477 5.973l-.853.014zM72.27 16.757c-2.629 0-3.828-1.18-3.828-3.541V9.07h.332c1.127 0 1.604.464 1.604 1.349v2.867c0 1.321.621 1.87 1.791 1.87.4-.002.797-.049 1.185-.141V9.07h.332c1.127 0 1.604.464 1.604 1.349v5.903c-.98.281-1.997.428-3.02.435zM83.554 16.659c-.925 0-1.46-.464-1.46-1.35v-1.868h-2.99v3.218h-.477c-.924 0-1.459-.464-1.459-1.35V9.07h.332c1.127 0 1.604.465 1.604 1.35v1.56h2.99v-2.91h.333c1.127 0 1.603.465 1.603 1.35v6.24h-.476zM89.231 16.828c-2.34 0-3.684-1.813-3.684-3.823 0-2.277 1.344-4.104 3.858-4.104 2.34 0 3.684 1.827 3.684 3.837 0 2.28-1.344 4.09-3.858 4.09zm0-6.24c-1.112 0-1.676.899-1.676 2.15 0 1.504.564 2.403 1.85 2.403 1.126 0 1.675-.9 1.675-2.136 0-1.518-.577-2.417-1.849-2.417zM102.465 12.555a23.273 23.273 0 001.762 2.305c.636.675.896.801 1.401.914-.101.59-.418.941-1.242.941a1.639 1.639 0 01-1.185-.478c-.953-.997-1.719-2.15-2.542-3.246v3.654h-.477c-.925 0-1.46-.464-1.46-1.35v-2.318c-.837 1.096-1.588 2.248-2.542 3.246a1.685 1.685 0 01-.55.356 1.725 1.725 0 01-.649.122c-.823 0-1.141-.351-1.242-.942.505-.112.765-.239 1.401-.913a21.34 21.34 0 001.763-2.305A37.856 37.856 0 0093.72 9.14v-.07h1.358c.665 0 .983.154 1.214.393a28.989 28.989 0 012.441 2.91V9.07h.333c1.127 0 1.603.464 1.603 1.349v1.967a29.087 29.087 0 012.427-2.909c.246-.239.564-.393 1.214-.393h1.372v.07a39.526 39.526 0 00-3.218 3.401zM112.592 16.704a1.923 1.923 0 01-1.271-.52 32.422 32.422 0 01-2.716-3.233v3.71h-.622c-.895 0-1.329-.449-1.329-1.334V9.07h.621c.939 0 1.33.52 1.33 1.25v1.996a23.126 23.126 0 012.383-2.754c.463-.422.925-.492 1.546-.492h1.124v.07a40.29 40.29 0 00-3.178 3.443c.621.745 1.228 1.518 1.921 2.207.694.688 1.026.843 1.503.984-.2.604-.518.93-1.312.93zM118.053 16.785h-.39c-1.849 0-3.121-1.011-3.121-2.403 0-1.349 1.012-2.375 3.872-2.375h.679v-.098c0-1.068-.52-1.406-1.676-1.406-1.401 0-2.181.52-2.47.872h-.072v-.59c0-.844.78-1.856 2.831-1.856 1.734 0 3.294.787 3.294 3.401v1.743c0 1.602-1.214 2.712-2.947 2.712zm1.054-3.429h-.693c-1.474 0-1.893.338-1.893.956 0 .618.492.942 1.344.942.852 0 1.242-.394 1.242-1.167v-.73zM31.712 23.99v-3.624h.396v3.624h-.396zM34.683 21.246c.228 0 .428.043.6.13.175.082.31.21.407.382.1.173.15.39.15.653v1.579h-.38v-1.543c0-.287-.076-.502-.226-.647-.146-.149-.353-.223-.62-.223-.2 0-.376.04-.526.12a.813.813 0 00-.342.336 1.096 1.096 0 00-.118.528v1.429h-.38v-2.718h.364v.745l-.06-.14a.987.987 0 01.43-.46c.196-.114.43-.171.7-.171zM37.756 24.016c-.264 0-.468-.07-.61-.207-.144-.139-.215-.334-.215-.585V20.67h.38v2.532c0 .159.041.281.123.367.086.087.207.13.364.13a.626.626 0 00.418-.14l.134.264a.708.708 0 01-.273.145c-.104.031-.21.047-.321.047zm-1.328-2.439v-.305h1.74v.305h-1.74zM40.137 24.016c-.293 0-.55-.06-.771-.176a1.347 1.347 0 01-.52-.492 1.383 1.383 0 01-.187-.72c0-.269.059-.507.177-.714.121-.207.285-.37.492-.487.211-.12.447-.181.707-.181.265 0 .498.059.702.176.207.114.37.276.487.487.118.207.177.447.177.72a.334.334 0 01-.005.056v.057h-2.448v-.274h2.244l-.15.108c0-.196-.044-.37-.134-.523a.924.924 0 00-.353-.362 1.024 1.024 0 00-.52-.13c-.192 0-.365.044-.52.13a.914.914 0 00-.358.363 1.086 1.086 0 00-.128.533v.057c0 .207.046.39.139.548.096.156.228.278.396.368.172.086.366.13.584.13.171 0 .33-.03.476-.089a.99.99 0 00.386-.269l.214.238a1.2 1.2 0 01-.471.332c-.186.076-.39.114-.616.114zM43.375 25.02c-.258 0-.504-.036-.74-.109a1.472 1.472 0 01-.572-.31l.192-.28c.132.114.295.204.488.27.196.068.403.103.62.103.358 0 .62-.081.788-.244.168-.158.252-.407.252-.745v-.678l.053-.466-.037-.466v-.823h.364v2.386c0 .47-.12.813-.359 1.03-.235.221-.585.332-1.05.332zm-.07-1.134c-.268 0-.509-.055-.723-.165a1.316 1.316 0 01-.509-.472c-.121-.2-.182-.43-.182-.688 0-.259.06-.487.182-.683.125-.2.295-.356.509-.466.214-.11.455-.166.723-.166.25 0 .475.05.675.15.2.1.359.249.476.445.118.197.177.437.177.72s-.059.523-.177.72a1.177 1.177 0 01-.476.45c-.2.103-.425.155-.675.155zm.038-.326c.206 0 .39-.041.551-.124a.993.993 0 00.38-.352.982.982 0 00.14-.523.956.956 0 00-.14-.518.955.955 0 00-.38-.347 1.148 1.148 0 00-.551-.13c-.204 0-.388.044-.552.13a.955.955 0 00-.38.347.985.985 0 00-.134.518c0 .197.044.37.134.523.092.148.22.265.38.352.164.083.348.124.552.124zM45.841 23.99v-2.718h.364v.74l-.037-.13a.89.89 0 01.396-.47c.186-.11.416-.166.69-.166v.357h-.042a.185.185 0 00-.043-.005c-.296 0-.528.088-.696.264-.168.173-.252.42-.252.74v1.388h-.38zM49.502 23.99v-.6l-.017-.1v-1.003c0-.232-.067-.41-.203-.534-.132-.124-.33-.186-.594-.186-.183 0-.356.03-.52.088a1.334 1.334 0 00-.418.233l-.171-.275a1.5 1.5 0 01.514-.269c.2-.065.41-.098.632-.098.364 0 .644.088.84.264.2.172.3.436.3.792v1.688h-.364zm-.97.026c-.21 0-.394-.033-.551-.099a.837.837 0 01-.354-.28.719.719 0 01-.123-.413c0-.142.034-.27.102-.384a.726.726 0 01.342-.28c.161-.072.375-.108.643-.108h.97v.274h-.96c-.27 0-.46.047-.567.14a.448.448 0 00-.155.347c0 .155.062.28.187.373.125.093.3.14.525.14.214 0 .398-.047.552-.14a.833.833 0 00.342-.414l.086.253a.868.868 0 01-.375.43c-.175.107-.396.16-.664.16zM51.787 24.016c-.264 0-.467-.07-.61-.207-.143-.139-.214-.334-.214-.585V20.67h.38v2.532c0 .159.041.281.123.367.086.087.207.13.364.13a.626.626 0 00.418-.14l.134.264a.707.707 0 01-.273.145c-.104.031-.21.047-.322.047zm-1.328-2.439v-.305h1.74v.305h-1.74zM54.12 24.016c-.27 0-.515-.06-.733-.176a1.368 1.368 0 01-.509-.492 1.382 1.382 0 01-.187-.72c0-.273.062-.512.187-.72a1.33 1.33 0 01.509-.486c.214-.117.459-.176.734-.176.278 0 .524.059.739.176.218.117.387.28.508.487.125.207.188.447.188.72 0 .268-.063.508-.188.719a1.318 1.318 0 01-.508.492 1.533 1.533 0 01-.74.176zm0-.327c.204 0 .385-.043.542-.129a.967.967 0 00.37-.373c.092-.162.138-.348.138-.559 0-.214-.046-.4-.139-.559a.93.93 0 00-.37-.367 1.06 1.06 0 00-.535-.135c-.2 0-.378.045-.535.134a.967.967 0 00-.375.368c-.093.159-.14.345-.14.56 0 .21.047.396.14.558.093.159.217.283.374.373.158.086.334.13.53.13zM56.332 23.99v-2.718h.364v.74l-.037-.13a.89.89 0 01.396-.47c.186-.11.416-.166.691-.166v.357h-.043a.184.184 0 00-.043-.005c-.296 0-.528.088-.696.264-.168.173-.252.42-.252.74v1.388h-.38zM60.456 23.99l-1.06-2.718h.364l.964 2.521h-.166l.99-2.521h.328l.98 2.521h-.166l.98-2.521h.348l-1.066 2.718h-.359l-.942-2.371h.112l-.948 2.37h-.359zM65.706 24.016c-.293 0-.55-.06-.771-.176a1.348 1.348 0 01-.52-.492 1.383 1.383 0 01-.187-.72c0-.269.059-.507.177-.714.121-.207.285-.37.492-.487.211-.12.447-.181.707-.181.264 0 .498.059.702.176.207.114.37.276.487.487.118.207.177.447.177.72a.334.334 0 01-.005.056v.057h-2.448v-.274h2.244l-.15.108c0-.196-.045-.37-.134-.523a.924.924 0 00-.353-.362 1.024 1.024 0 00-.52-.13c-.193 0-.366.044-.52.13a.914.914 0 00-.358.363 1.085 1.085 0 00-.129.533v.057c0 .207.047.39.14.548.096.156.228.278.396.368.171.086.366.13.584.13.171 0 .33-.03.476-.089a.99.99 0 00.386-.269l.214.238a1.201 1.201 0 01-.471.332 1.613 1.613 0 01-.616.114zM69.195 24.016c-.246 0-.468-.054-.664-.16a1.196 1.196 0 01-.466-.477 1.534 1.534 0 01-.171-.75c0-.298.057-.548.171-.752.118-.207.275-.364.471-.47.197-.108.416-.161.66-.161.267 0 .506.059.717.176.214.114.382.274.503.481.121.207.182.45.182.725 0 .273-.06.514-.182.725a1.29 1.29 0 01-.503.486c-.21.118-.45.177-.718.177zm-1.451-.026v-3.842h.38v1.926l-.053.549.037.549v.818h-.364zm1.424-.3c.2 0 .379-.044.536-.13.157-.09.282-.214.375-.373.093-.162.139-.348.139-.559 0-.214-.046-.4-.14-.559a.968.968 0 00-.374-.367 1.06 1.06 0 00-.536-.135c-.2 0-.38.045-.54.134a.968.968 0 00-.375.368c-.09.159-.134.345-.134.56 0 .21.044.396.134.558.092.159.217.283.374.373.161.086.341.13.541.13zM73.642 24.02c-.27 0-.528-.04-.77-.123a1.6 1.6 0 01-.58-.342l.188-.295c.122.12.284.22.488.3.207.08.432.12.674.12.311 0 .549-.067.713-.198a.635.635 0 00.251-.528.64.64 0 00-.246-.528c-.16-.13-.416-.196-.766-.196h-.267v-.275l1.156-1.403.054.145h-2.089v-.331h2.41v.264l-1.157 1.403-.187-.12h.145c.45 0 .785.097 1.006.29a.938.938 0 01.338.746c0 .204-.05.387-.15.549-.1.162-.252.29-.455.383-.2.093-.452.14-.755.14zM75.835 24.016a.279.279 0 01-.284-.285c0-.083.027-.15.08-.202a.293.293 0 01.204-.078c.079 0 .145.026.198.078a.26.26 0 01.086.202.27.27 0 01-.086.202.265.265 0 01-.198.083zM78.118 24.02c-.29 0-.547-.072-.772-.217a1.503 1.503 0 01-.53-.631c-.128-.276-.193-.608-.193-.994 0-.387.065-.716.193-.989.129-.276.305-.487.53-.632.225-.148.482-.222.772-.222.289 0 .546.074.77.222.226.145.402.356.531.632.132.273.198.602.198.989 0 .386-.066.718-.198.994a1.503 1.503 0 01-.53.631 1.392 1.392 0 01-.771.218zm0-.34a.99.99 0 00.578-.172c.164-.117.293-.286.386-.507.092-.224.139-.499.139-.823 0-.325-.047-.597-.14-.818a1.116 1.116 0 00-.385-.508.969.969 0 00-.578-.175.975.975 0 00-.573.175 1.1 1.1 0 00-.391.508c-.093.22-.14.493-.14.818 0 .324.047.599.14.823.093.22.223.39.39.507.168.114.36.171.574.171z"/><path fill-rule="evenodd" clip-rule="evenodd" d="M24.143 13.277a.364.364 0 01.554.175.357.357 0 01-.12.4.364.364 0 01-.56-.154.317.317 0 01.127-.421zm-.611-1.817a.644.644 0 01.676-.328.647.647 0 01.53.53.636.636 0 01-.334.668.65.65 0 01-.746-.099.57.57 0 01-.126-.771zm-1.006.182c-.224-.02-.39-.177-.373-.348a.362.362 0 01.434-.268c.221.02.39.177.373.348a.365.365 0 01-.434.268zm2.39 3.318a.209.209 0 01.292.092.204.204 0 01-.12.28.208.208 0 01-.212-.047.236.236 0 01.04-.325zm.35-2.142a.422.422 0 01.623.255.413.413 0 01-.178.45.423.423 0 01-.631-.232.365.365 0 01.187-.473zm-7.114-8.3c.488.57.71 1.535.342 3.073-.072-.41-.307-1.729-.597-2.279l.255-.789v-.005zm-1.27-.61c-1.185-1.225-3.104-2.085-5.97-1.247 0 0 1.815-1.237 3.969-.855.999.201 1.895.744 2.533 1.532l-.531.57zm-2.18 6.463c1.247-.165 2.873-1.655 2.873-1.655-.029 2.695-2.37 2.829-2.872 1.655zm-.054 19.586a.232.232 0 01-.155-.284.203.203 0 01.148-.212.209.209 0 01.24.098.204.204 0 01.008.18c-.022.142-.132.241-.24.221v-.003zm-1.212-1.95a.324.324 0 01-.463-.113.317.317 0 01.16-.446.324.324 0 01.335.054.357.357 0 01-.032.504zm.362 1.193a.272.272 0 01-.258-.179.266.266 0 01.088-.3.271.271 0 01.418.113c.02.052.024.11.01.163a.233.233 0 01-.258.203zm-1.129-2.504a.649.649 0 01-.588-.464.636.636 0 01.253-.703.65.65 0 01.983.328.636.636 0 01.002.392.57.57 0 01-.65.447zm.018-2.381a.323.323 0 01.298-.167.328.328 0 01.283.192.32.32 0 01-.196.435.327.327 0 01-.179.007.372.372 0 01-.206-.467zM10.084 8.597s1.612 1.595 2.858 1.76c-.502 1.174-2.674 1.27-2.858-1.76zm8.875 7.17a.434.434 0 01.314.33.427.427 0 01-.16.425.436.436 0 01-.7-.337.492.492 0 01.546-.419zm.66 2.147a.462.462 0 01.435.311.452.452 0 01-.157.508.461.461 0 01-.71-.204.452.452 0 01-.012-.279.404.404 0 01.445-.336zm.415-1.273a.463.463 0 01.526.2.452.452 0 01-.064.555.464.464 0 01-.527-.2.453.453 0 01.064-.555zM8.347 25.975a.271.271 0 01-.456-.229.267.267 0 01.216-.225.272.272 0 01.286.13.235.235 0 01-.046.324zm-.598-2.74a.235.235 0 01.115-.308.21.21 0 01.364.12.206.206 0 01-.148.22.24.24 0 01-.33-.032zM7.6 24.722a.531.531 0 01-.837-.138.52.52 0 01.375-.755.533.533 0 01.557.26.456.456 0 01-.095.633zm-.908-1.624a.423.423 0 01-.465-.16.414.414 0 01.224-.636.423.423 0 01.465.16c.05.072.077.158.075.246a.365.365 0 01-.313.405l.014-.015zm.94-2.179a.209.209 0 01.291.092.204.204 0 01-.119.28.208.208 0 01-.213-.047.235.235 0 01.04-.325zm-3.6-2.484a.286.286 0 01-.262.14.29.29 0 01-.246-.168.283.283 0 01.162-.384.29.29 0 01.154-.012.334.334 0 01.193.424zm-1.688.285c-.33.074-.675-.21-.77-.632-.094-.422.092-.826.42-.9.327-.074.675.21.77.632.094.422-.093.826-.42.9zm-.574-2.848a.412.412 0 01.385-.207.416.416 0 01.356.252.407.407 0 01-.264.55.416.416 0 01-.228.003.47.47 0 01-.25-.598zm24.361 2.361c.385.188.118 1.934-1.232 1.812-1.396-.131-.695-1.245.462-2.968 2.838-4.216-.982-7.637-4.113-6.612a9.39 9.39 0 00-2.938 1.852C22.274 5.925 19.534-.017 13.77 0h-.095c-.716.014-6.141.507-6.296 6.552-.066 2.327 1.02 3.797 1.944 5.845 1.112 2.472.885 5.19-2.64 4.748.937-.174 1.54-.521 1.914-.951-.443-.04-.937-.336-1.393-.943-.624-.83-.693-1.162-1.367-1.541C3.05 12.149.196 14.906.91 17.917c.79 3.316 3.291 3.578 2.38 5.412-.91 1.834-3.902.47-2.45-2.028-1.234 1.02-.901 2.709-.324 3.566.862 1.28 3.67 1.635 4.883-.077-.81-1.891-1.683-5.195 1.723-5.905 4.053-.84 2.84-.686 3.657-1.464-.506 2.085-3.292 1.091-4.444 2.521-1.3 1.613-.413 3.823-.367 3.934.445.988 1.31 2.065 2.68 3.133.416.482.778 1.054.66 1.77-.172 1.047-1.876 1.073-1.924-.317-.15.57-.078 1.64 1.148 1.889 1.227.247 2.97-1.504 2.514-3.285-.457-1.78-.647-1.96-.592-3.01.103-1.995 2.298-3.063 3.024-3.091C9.91 22.975 11.205 31 16.72 31c4.595 0 4.308-5.264 1.577-4.874-1.723.242-1.695 1.424-1.695 1.424a2.76 2.76 0 011.436-.088c1.014.308 1.17 1.667.072 2.253-1.353.724-3.55-.57-1.858-3.631.158-.239.351-.452.574-.633-.637-.13-1.548-.598-1.798-2.168-.316-1.994.917-3.6.135-3.648.549-1.191 2.23-1.447 1.5.094-.262.547-2.893 3.774.436 5.437 2.62.715 6.646-2.096 6.876.171-.175.949-1.203 1.356-1.703 1.14.324.165 1.378.61 2.26-.157 1.89-1.644.707-4.415-2.272-3.945-3.552.57-3.871-.929-2.263-2.333 1.33-1.162 1.686-2.362 1.454-3.37a.345.345 0 01-.058-.097c-.365-1.267-2.55-3.418-5.836-.504.448-.507 1.577-1.572 3.107-1.797.968-.14 2.238.097 2.947.854.5-.928 1.13-.57 1.267-.045.158.604-2.01 3.93-.712 5.318 1.298 1.387 3.656.894 4.388-.032.962-1.196.107-1.934-.425-2.133l.003-.003z"/></g><defs><clipPath id="mclip0_1036_5245"><path fill="#fff" d="M0 0h121v31H0z"/></clipPath></defs></svg>