<?xml version="1.0" encoding="utf-8"?><svg width="32" height="32" xmlns="http://www.w3.org/2000/svg" viewBox="0 0 32 32"><rect x=".5" y=".5" width="31" height="31" rx="9.5" stroke="#398166"/><path d="M23.376 11.03C22.8 10.3 21.733 10 19.696 10h-7.392c-2.083 0-3.168.318-3.743 1.097C8 11.857 8 12.975 8 14.524v2.952c0 3 .666 4.524 4.304 4.524h7.392c1.766 0 2.745-.263 3.378-.91.649-.661.926-1.742.926-3.614v-2.952c0-1.633-.043-2.759-.624-3.494zm-5.104 5.378l-3.357 1.87a.49.49 0 01-.506-.018.558.558 0 01-.249-.47v-3.728c0-.192.094-.37.248-.47a.489.489 0 01.506-.018l3.357 1.858c.17.094.278.282.278.487a.556.556 0 01-.277.489z" fill="currentColor"/></svg>