<svg width="32" height="32" viewBox="0 0 32 32" xmlns="http://www.w3.org/2000/svg">
<rect x="0.5" y="0.5" width="31" height="31" rx="9.5" stroke="#398166"/>
<path d="M10.0062 18.9291C10.0375 18.7726 10.0625 18.6161 10.1031 18.4627C10.2249 18.0025 10.4466 17.5925 10.784 17.2513C11.6366 16.3935 12.48 15.5264 13.3545 14.6875C14.6101 13.4823 16.7246 13.7703 17.6304 15.2447C17.6429 15.2666 17.6585 15.2917 17.6585 15.2917C17.493 15.4701 17.3493 15.661 17.1713 15.8082C16.9027 16.0336 16.5247 15.996 16.2561 15.7424C15.9688 15.4732 15.6314 15.3355 15.2379 15.3417C14.8662 15.348 14.5414 15.4764 14.279 15.7393C13.4545 16.5595 12.6299 17.3796 11.8116 18.2091C11.2743 18.7538 11.2837 19.6335 11.8209 20.1719C12.3644 20.7197 13.2389 20.7353 13.7918 20.1938C14.3196 19.6804 14.8381 19.1545 15.3566 18.6286C15.4378 18.5472 15.4971 18.5222 15.6158 18.566C16.1218 18.7444 16.6403 18.7914 17.1713 18.7225C17.19 18.7194 17.2087 18.7194 17.2525 18.7194C17.2119 18.7632 17.1838 18.7945 17.1525 18.8227C16.3842 19.5896 15.6158 20.3566 14.8506 21.1266C14.3727 21.6087 13.8011 21.903 13.1234 21.9812C13.1046 21.9843 13.089 21.9937 13.0703 22C12.8985 22 12.7267 22 12.5549 22C12.5299 21.9937 12.5049 21.9812 12.4768 21.9781C11.3243 21.8028 10.5435 21.1642 10.1468 20.0686C10.075 19.8682 10.05 19.6522 10 19.4456C10.0062 19.2703 10.0062 19.0982 10.0062 18.9291Z" fill="currentColor"/>
<path d="M22 13.0691C21.9531 13.2726 21.9188 13.4823 21.8594 13.6827C21.7408 14.074 21.544 14.4246 21.2566 14.7157C20.3977 15.5859 19.5419 16.4593 18.6611 17.3045C17.5648 18.3563 15.7595 18.2937 14.7163 17.1855C14.5726 17.0321 14.4571 16.8568 14.3477 16.716C14.5258 16.5219 14.6694 16.3278 14.8475 16.1775C15.113 15.9584 15.4878 15.996 15.7533 16.2464C15.9844 16.4624 16.2499 16.597 16.5622 16.6346C17.0213 16.6909 17.418 16.5595 17.7491 16.2339C18.1364 15.852 18.5174 15.467 18.9016 15.0819C19.3295 14.6531 19.7605 14.2305 20.1853 13.7954C20.9287 13.0378 20.607 11.7669 19.595 11.4695C19.0734 11.3161 18.6018 11.4288 18.2113 11.8076C17.6741 12.3304 17.1494 12.8656 16.6216 13.3978C16.5653 13.4541 16.5185 13.4667 16.4404 13.4385C15.9219 13.2507 15.3847 13.2006 14.8381 13.2663C14.8194 13.2695 14.8037 13.2695 14.7663 13.2726C14.7944 13.2382 14.81 13.2194 14.8287 13.2006C15.6252 12.4023 16.4185 11.5978 17.2244 10.809C18.4862 9.57251 20.5258 9.78225 21.519 11.241C21.772 11.6166 21.925 12.0298 21.9781 12.4775C21.9813 12.5025 21.9906 12.5276 22 12.5557C22 12.7248 22 12.8969 22 13.0691Z" fill="currentColor"/>
<path d="M10.0062 19.4425C10.0531 19.6522 10.0781 19.8682 10.153 20.0654C10.5497 21.1611 11.3306 21.7997 12.4831 21.975C12.5081 21.9781 12.5331 21.9906 12.5612 21.9969C11.7116 21.9969 10.8621 21.9969 10.0062 21.9969C10.0062 21.1454 10.0062 20.294 10.0062 19.4425Z" fill="currentColor"/>
</svg>
