<?xml version="1.0" encoding="utf-8"?><svg viewBox="0 0 120 36" xmlns="http://www.w3.org/2000/svg" xmlns:xlink="http://www.w3.org/1999/xlink"><style>:root>svg{display:none}:root>svg:target{display:block}</style><svg fill="none" viewBox="0 0 14 10" id="accepted" xmlns="http://www.w3.org/2000/svg"><path fill-rule="evenodd" clip-rule="evenodd" d="M13.655.354a.495.495 0 010 .697L5.493 9.284a1 1 0 01-1.42 0L.345 5.524a.495.495 0 01.703-.697l3.025 3.051a1 1 0 001.42 0L12.952.354a.495.495 0 01.703 0z" fill="#398166"/></svg><svg viewBox="0 0 32 32" id="facebook" xmlns="http://www.w3.org/2000/svg"><rect x=".5" y=".5" width="31" height="31" rx="9.5" stroke="#398166"/><path d="M19 11.324H17.73c-.995 0-1.187.492-1.187 1.212v1.589h2.372v2.489h-2.372V23h-2.475v-6.386H12v-2.489h2.069V12.29c0-2.13 1.253-3.29 3.082-3.29L19 9.003v2.32z" fill="currentColor"/></svg><svg fill="none" viewBox="0 0 20 20" id="info" xmlns="http://www.w3.org/2000/svg"><g clip-path="url(#cclip0_901_34646)" stroke="#398166" stroke-width="2" stroke-linecap="round" stroke-linejoin="round"><path d="M10 18.33a8.333 8.333 0 100-16.666 8.333 8.333 0 000 16.667zM10 13.333V10M10 6.664h.008"/></g><defs><clipPath id="cclip0_901_34646"><path fill="#fff" d="M0 0h20v20H0z"/></clipPath></defs></svg><svg viewBox="0 0 32 32" id="instagram" xmlns="http://www.w3.org/2000/svg"><rect x=".5" y=".5" width="31" height="31" rx="9.5" stroke="#398166"/><path d="M13.333 10A3.334 3.334 0 0010 13.333v5.334A3.334 3.334 0 0013.333 22h5.334A3.334 3.334 0 0022 18.667v-5.334A3.334 3.334 0 0018.667 10h-5.334zM20 11.333a.667.667 0 110 1.334.667.667 0 010-1.334zm-4 1.334a3.334 3.334 0 110 6.667 3.334 3.334 0 010-6.667zM16 14a2 2 0 100 4 2 2 0 000-4z" fill="currentColor"/></svg><svg fill="none" viewBox="0 0 120 36" id="logo" xmlns="http://www.w3.org/2000/svg"><g clip-path="url(#eclip0_901_34622)" fill="#398166"><path fill-rule="evenodd" clip-rule="evenodd" d="M0 16.833l6.204-6.227V6.727h3.863L16.271.5l6.204 6.227h3.863v3.879l6.204 6.227-6.204 6.228v3.878h-3.863l-6.204 6.227-6.204-6.227H6.204V23.06L0 16.833zm6.204 4.185c2.402-2.907 6.025-4.762 10.067-4.762 3.12 0 5.665-2.555 5.665-5.686a5.675 5.675 0 00-1.495-3.843l-4.17-4.185L2.034 16.833l4.17 4.186zm20.134-8.37c-2.402 2.907-6.025 4.762-10.067 4.762-3.12 0-5.664 2.555-5.664 5.686 0 1.48.567 2.83 1.495 3.843l4.17 4.185 14.237-14.291-4.17-4.186z"/><path fill-rule="evenodd" clip-rule="evenodd" d="M5.009 7.217a1.63 1.63 0 011.627-1.633h3.296c.434 0 .85-.174 1.156-.484l4.027-4.08a1.623 1.623 0 012.312 0l4.026 4.08c.306.31.722.484 1.156.484h3.296a1.63 1.63 0 011.627 1.633v3.372c0 .43.17.843.472 1.15l4.055 4.109a1.638 1.638 0 010 2.298l-4.055 4.11a1.636 1.636 0 00-.472 1.15v3.371a1.63 1.63 0 01-1.627 1.633H22.61c-.434 0-.85.175-1.156.484l-4.026 4.081a1.623 1.623 0 01-2.312 0l-4.027-4.08a1.624 1.624 0 00-1.156-.485H6.636a1.63 1.63 0 01-1.627-1.633v-3.372c0-.43-.17-.843-.471-1.149l-4.055-4.11a1.638 1.638 0 010-2.298l4.055-4.11c.302-.306.47-.719.47-1.15v-3.37zm-3.53 8.63a1.638 1.638 0 000 2.3l4.938 5.004 1.811 1.893 1.97 1.94 4.917 4.982a1.623 1.623 0 002.312 0l4.916-4.982 2.03-1.94 1.752-1.893 4.938-5.005a1.637 1.637 0 000-2.298l-4.938-5.005-1.914-2.057-1.868-1.776-4.916-4.982a1.623 1.623 0 00-2.312 0L1.478 15.848z"/><path d="M41.732 28.5V18.306h10.902V28.5h4.035V5.73h-4.035v8.886H41.732V5.73h-4.068V28.5h4.068zM67.449 11.676c-2.31 0-4.263.816-5.858 2.482-1.562 1.634-2.343 3.66-2.343 6.11s.781 4.474 2.343 6.14c1.595 1.666 3.547 2.483 5.858 2.483 2.603 0 4.49-.85 5.63-2.58.162.849.618 1.502 1.334 1.992.586.36 1.334.523 2.278.523.846 0 1.497-.098 1.92-.262v-3.168c-.293.032-.586.065-.814.065-.878 0-1.204-.523-1.204-1.927V12.035h-3.905v2.385c-.618-1.568-2.603-2.744-5.24-2.744zm.52 13.622c-1.399 0-2.538-.49-3.482-1.438-.91-.947-1.366-2.156-1.366-3.593 0-1.437.455-2.646 1.366-3.593.944-.948 2.083-1.438 3.482-1.438 1.4 0 2.604.49 3.547 1.438.977.947 1.465 2.156 1.465 3.593 0 1.437-.488 2.646-1.465 3.593-.943.948-2.147 1.438-3.547 1.438zM79.77 23.632c0 3.56 1.724 5.324 5.174 5.324.78 0 1.4-.065 1.855-.195v-3.496c-.326.098-.716.13-1.172.13-1.432 0-1.952-.685-1.952-2.286V5.73h-3.906v17.902zM88.794 35.228a6.826 6.826 0 001.92.262c1.66 0 2.962-.458 3.938-1.372.683-.686 1.269-1.666 1.757-2.94l7.355-19.143h-3.938l-4.523 12.413-4.816-12.413h-3.938l6.866 17.085-.423 1.176c-.26.686-.586 1.176-.944 1.405-.358.228-.813.359-1.431.359-.716 0-1.335-.098-1.823-.262v3.43zM108.736 28.5v-4.803l1.627-1.83 5.174 6.632h4.426l-7.094-9.114 6.411-7.35h-4.491l-6.053 6.99V5.73h-3.873V28.5h3.873z"/></g><defs><clipPath id="eclip0_901_34622"/></defs></svg><svg viewBox="0 0 32 32" id="slider-next" xmlns="http://www.w3.org/2000/svg"><path d="M9 16h14M16 9l7 7-7 7" stroke="#398166" stroke-linecap="round" stroke-linejoin="round"/><rect x=".5" y=".5" width="31" height="31" rx="9.5" stroke="#398166"/></svg><svg viewBox="0 0 32 32" id="slider-prev" xmlns="http://www.w3.org/2000/svg"><path d="M23 16H9M16 9l-7 7 7 7" stroke="#398166" stroke-linecap="round" stroke-linejoin="round"/><rect x="-.5" y=".5" width="31" height="31" rx="9.5" transform="matrix(-1 0 0 1 31 0)" stroke="#398166"/></svg><svg viewBox="0 0 32 32" id="youtube" xmlns="http://www.w3.org/2000/svg"><rect x=".5" y=".5" width="31" height="31" rx="9.5" stroke="#398166"/><path d="M23.376 11.03C22.8 10.3 21.733 10 19.696 10h-7.392c-2.083 0-3.168.318-3.743 1.097C8 11.857 8 12.975 8 14.524v2.952c0 3 .666 4.524 4.304 4.524h7.392c1.766 0 2.745-.263 3.378-.91.649-.661.926-1.742.926-3.614v-2.952c0-1.633-.043-2.759-.624-3.494zm-5.104 5.378l-3.357 1.87a.49.49 0 01-.506-.018.558.558 0 01-.249-.47v-3.728c0-.192.094-.37.248-.47a.489.489 0 01.506-.018l3.357 1.858c.17.094.278.282.278.487a.556.556 0 01-.277.489z" fill="currentColor"/></svg></svg>